<svg width="1128" height="377" viewBox="0 0 1128 377" fill="none" xmlns="http://www.w3.org/2000/svg">
<g filter="url(#filter0_d_21_644)">
<g clip-path="url(#clip0_21_644)">
<rect x="4" width="1120" height="369" rx="32" fill="url(#paint0_radial_21_644)"/>
<path opacity="0.3" d="M80.1662 189.411L80.1076 189.402L79.9185 189.356C78.8107 189.081 77.7068 188.789 76.6073 188.482C63.3705 184.719 50.5613 179.564 38.3924 173.103C16.8078 161.535 -7.90285 142.409 -15.8308 112.821C-21.7465 90.7435 -7.96927 68.2866 14.3219 62.3137C20.5106 60.6227 27.003 60.3571 33.3164 61.5365C39.6297 62.7159 45.6016 65.31 50.7878 69.126C53.3717 63.227 57.2475 57.9935 62.1267 53.815C67.0059 49.6365 72.7629 46.6205 78.9695 44.9914C101.253 39.0205 124.413 51.5802 130.329 73.6578C138.259 103.253 126.422 132.172 113.509 152.967C106.201 164.647 97.6853 175.516 88.1032 185.393C87.3055 186.212 86.496 187.019 85.6749 187.814L85.5343 187.948L85.4899 187.993L85.4694 188.006C84.7727 188.657 83.9276 189.126 83.0078 189.373C82.088 189.619 81.1215 189.635 80.1927 189.42L80.1682 189.419L80.1662 189.411Z" fill="#FF6390"/>
<path opacity="0.5" d="M1081.93 332.087L1081.9 332.068L1081.83 332C1081.41 331.599 1081 331.191 1080.59 330.778C1075.71 325.776 1071.37 320.274 1067.64 314.362C1061.06 303.83 1055.01 289.2 1059.02 274.249C1062.01 263.093 1073.77 256.764 1085.12 259.803C1088.27 260.633 1091.2 262.162 1093.69 264.279C1096.17 266.396 1098.15 269.044 1099.47 272.028C1102.1 270.103 1105.14 268.797 1108.35 268.207C1111.56 267.616 1114.86 267.757 1118.01 268.618C1129.35 271.656 1136.38 283.022 1133.39 294.178C1129.39 309.132 1116.83 318.78 1105.87 324.601C1099.68 327.857 1093.17 330.451 1086.44 332.342C1085.88 332.498 1085.32 332.645 1084.76 332.785L1084.66 332.808L1084.63 332.816L1084.62 332.817C1084.15 332.925 1083.66 332.916 1083.19 332.79C1082.72 332.665 1082.29 332.427 1081.93 332.097L1081.92 332.09L1081.93 332.087Z" fill="#DF89C6"/>
<path opacity="0.5" d="M1047.6 236.649L1047.59 236.647L1047.56 236.637C1047.38 236.575 1047.21 236.51 1047.03 236.443C1044.93 235.628 1042.91 234.593 1041.02 233.355C1037.68 231.141 1033.94 227.651 1033.11 222.718C1032.49 219.037 1035.1 215.598 1038.84 214.97C1039.88 214.79 1040.95 214.847 1041.96 215.136C1042.98 215.425 1043.91 215.938 1044.7 216.639C1045.22 215.719 1045.94 214.928 1046.8 214.324C1047.67 213.719 1048.66 213.318 1049.7 213.148C1053.44 212.52 1057.03 214.919 1057.65 218.6C1058.48 223.534 1056.08 228.054 1053.64 231.237C1052.26 233.024 1050.69 234.66 1048.96 236.118C1048.82 236.239 1048.68 236.358 1048.53 236.474L1048.5 236.494L1048.5 236.501L1048.49 236.503C1048.37 236.598 1048.22 236.661 1048.07 236.687C1047.91 236.713 1047.75 236.701 1047.61 236.651L1047.6 236.651L1047.6 236.649Z" fill="#DF89C6"/>
</g>
</g>
<defs>
<filter id="filter0_d_21_644" x="0" y="0" width="1128" height="377" filterUnits="userSpaceOnUse" color-interpolation-filters="sRGB">
<feFlood flood-opacity="0" result="BackgroundImageFix"/>
<feColorMatrix in="SourceAlpha" type="matrix" values="0 0 0 0 0 0 0 0 0 0 0 0 0 0 0 0 0 0 127 0" result="hardAlpha"/>
<feOffset dy="4"/>
<feGaussianBlur stdDeviation="2"/>
<feComposite in2="hardAlpha" operator="out"/>
<feColorMatrix type="matrix" values="0 0 0 0 0 0 0 0 0 0 0 0 0 0 0 0 0 0 0.25 0"/>
<feBlend mode="normal" in2="BackgroundImageFix" result="effect1_dropShadow_21_644"/>
<feBlend mode="normal" in="SourceGraphic" in2="effect1_dropShadow_21_644" result="shape"/>
</filter>
<radialGradient id="paint0_radial_21_644" cx="0" cy="0" r="1" gradientUnits="userSpaceOnUse" gradientTransform="translate(39 -7.19866e-05) rotate(19.9339) scale(1154.15 2470.51)">
<stop offset="0.356443" stop-color="#820025"/>
<stop offset="1" stop-color="#A95BCD"/>
</radialGradient>
<clipPath id="clip0_21_644">
<rect x="4" width="1120" height="369" rx="32" fill="white"/>
</clipPath>
</defs>
</svg>
