<svg width="282" height="187" viewBox="0 0 282 187" fill="none" xmlns="http://www.w3.org/2000/svg">
<rect x="0.5" y="0.5" width="281" height="186" rx="15.5" fill="#F6F7FC"/>
<path d="M132.068 64.3261L132.057 64.3193L132.014 64.2968C131.126 63.8135 130.253 63.3014 129.398 62.7614C127.359 61.4786 125.416 60.0489 123.585 58.4839C119.443 54.9111 114.839 49.5507 114.839 43.13C114.839 41.035 115.489 38.9917 116.698 37.2812C117.908 35.5708 119.618 34.2775 121.593 33.5792C123.568 32.881 125.711 32.8123 127.727 33.3825C129.743 33.9527 131.533 35.1338 132.849 36.7632C134.166 35.1338 135.956 33.9527 137.971 33.3825C139.987 32.8123 142.13 32.881 144.106 33.5792C146.081 34.2775 147.791 35.5708 149 37.2812C150.21 38.9917 150.86 41.035 150.86 43.13C150.86 49.5507 146.258 54.9111 142.114 58.4839C139.512 60.7069 136.687 62.6549 133.685 64.2968L133.642 64.3193L133.631 64.3261H133.626C133.387 64.4528 133.12 64.5193 132.85 64.5197C132.579 64.52 132.312 64.4544 132.073 64.3284L132.068 64.3261Z" fill="#FF1659"/>
<path fill-rule="evenodd" clip-rule="evenodd" d="M149.888 45.6787C147.001 45.6787 144.231 46.8258 142.19 48.8677C140.148 50.9095 139.001 53.6789 139.001 56.5665C139.001 59.4542 140.148 62.2235 142.19 64.2654C144.231 66.3072 147.001 67.4543 149.888 67.4543C152.776 67.4543 155.545 66.3072 157.587 64.2654C159.629 62.2235 160.776 59.4542 160.776 56.5665C160.776 53.6789 159.629 50.9095 157.587 48.8677C155.545 46.8258 152.776 45.6787 149.888 45.6787ZM136.031 56.5665C136.031 54.3507 136.563 52.1672 137.581 50.1992C138.6 48.2313 140.075 46.5362 141.884 45.2562C143.693 43.9763 145.782 43.1487 147.977 42.843C150.171 42.5373 152.407 42.7623 154.497 43.4992C156.587 44.2361 158.469 45.4634 159.987 47.0781C161.504 48.6928 162.612 50.6479 163.218 52.7793C163.824 54.9107 163.909 57.1564 163.468 59.3278C163.027 61.4992 162.071 63.5331 160.681 65.259L167.269 71.8491C167.415 71.985 167.532 72.1489 167.613 72.331C167.695 72.5132 167.738 72.7098 167.742 72.9091C167.745 73.1085 167.709 73.3065 167.634 73.4913C167.559 73.6762 167.448 73.8442 167.307 73.9851C167.166 74.1261 166.998 74.2373 166.813 74.3119C166.628 74.3866 166.43 74.4233 166.231 74.4198C166.032 74.4163 165.835 74.3726 165.653 74.2915C165.471 74.2103 165.307 74.0933 165.171 73.9475L158.581 67.3593C156.545 68.9992 154.087 70.0297 151.49 70.3318C148.893 70.634 146.264 70.1954 143.906 69.0668C141.548 67.9382 139.557 66.1655 138.164 63.9536C136.77 61.7417 136.031 59.1808 136.031 56.5665Z" fill="#95002B"/>
<path d="M34.4077 110C33.8797 110 33.4717 109.864 33.1837 109.592C32.9117 109.304 32.7757 108.896 32.7757 108.368V94.712C32.7757 94.184 32.9117 93.784 33.1837 93.512C33.4717 93.224 33.8797 93.08 34.4077 93.08H39.0637C41.8957 93.08 44.0797 93.808 45.6157 95.264C47.1677 96.72 47.9437 98.808 47.9437 101.528C47.9437 102.888 47.7437 104.096 47.3437 105.152C46.9597 106.192 46.3837 107.072 45.6157 107.792C44.8637 108.512 43.9357 109.064 42.8317 109.448C41.7437 109.816 40.4877 110 39.0637 110H34.4077ZM35.8477 107.456H38.8717C39.8637 107.456 40.7197 107.336 41.4397 107.096C42.1757 106.84 42.7837 106.472 43.2637 105.992C43.7597 105.496 44.1277 104.88 44.3677 104.144C44.6077 103.392 44.7277 102.52 44.7277 101.528C44.7277 99.544 44.2397 98.064 43.2637 97.088C42.2877 96.112 40.8237 95.624 38.8717 95.624H35.8477V107.456ZM51.7769 110.168C51.2969 110.168 50.9289 110.024 50.6729 109.736C50.4169 109.448 50.2889 109.048 50.2889 108.536V99.728C50.2889 99.2 50.4169 98.8 50.6729 98.528C50.9289 98.24 51.2969 98.096 51.7769 98.096C52.2569 98.096 52.6249 98.24 52.8809 98.528C53.1529 98.8 53.2889 99.2 53.2889 99.728V108.536C53.2889 109.048 53.1609 109.448 52.9049 109.736C52.6489 110.024 52.2729 110.168 51.7769 110.168ZM51.7769 95.864C51.2169 95.864 50.7769 95.728 50.4569 95.456C50.1529 95.168 50.0009 94.776 50.0009 94.28C50.0009 93.768 50.1529 93.376 50.4569 93.104C50.7769 92.832 51.2169 92.696 51.7769 92.696C52.3529 92.696 52.7929 92.832 53.0969 93.104C53.4009 93.376 53.5529 93.768 53.5529 94.28C53.5529 94.776 53.4009 95.168 53.0969 95.456C52.7929 95.728 52.3529 95.864 51.7769 95.864ZM60.2221 110.24C59.5341 110.24 58.8061 110.168 58.0381 110.024C57.2701 109.88 56.5821 109.632 55.9741 109.28C55.7181 109.12 55.5341 108.936 55.4221 108.728C55.3261 108.504 55.2861 108.288 55.3021 108.08C55.3341 107.856 55.4141 107.664 55.5421 107.504C55.6861 107.344 55.8621 107.24 56.0701 107.192C56.2941 107.144 56.5341 107.184 56.7901 107.312C57.4301 107.616 58.0301 107.832 58.5901 107.96C59.1501 108.072 59.7021 108.128 60.2461 108.128C61.0141 108.128 61.5821 108 61.9501 107.744C62.3341 107.472 62.5261 107.12 62.5261 106.688C62.5261 106.32 62.3981 106.04 62.1421 105.848C61.9021 105.64 61.5341 105.488 61.0381 105.392L58.6381 104.936C57.6461 104.744 56.8861 104.384 56.3581 103.856C55.8461 103.312 55.5901 102.616 55.5901 101.768C55.5901 101 55.7981 100.336 56.2141 99.776C56.6461 99.216 57.2381 98.784 57.9901 98.48C58.7421 98.176 59.6061 98.024 60.5821 98.024C61.2861 98.024 61.9421 98.104 62.5501 98.264C63.1741 98.408 63.7741 98.64 64.3501 98.96C64.5901 99.088 64.7501 99.256 64.8301 99.464C64.9261 99.672 64.9501 99.888 64.9021 100.112C64.8541 100.32 64.7581 100.512 64.6141 100.688C64.4701 100.848 64.2861 100.952 64.0621 101C63.8541 101.032 63.6141 100.984 63.3421 100.856C62.8461 100.6 62.3661 100.416 61.9021 100.304C61.4541 100.192 61.0221 100.136 60.6061 100.136C59.8221 100.136 59.2381 100.272 58.8541 100.544C58.4861 100.816 58.3021 101.176 58.3021 101.624C58.3021 101.96 58.4141 102.24 58.6381 102.464C58.8621 102.688 59.2061 102.84 59.6701 102.92L62.0701 103.376C63.1101 103.568 63.8941 103.92 64.4221 104.432C64.9661 104.944 65.2381 105.632 65.2381 106.496C65.2381 107.664 64.7821 108.584 63.8701 109.256C62.9581 109.912 61.7421 110.24 60.2221 110.24ZM72.5888 110.24C71.3568 110.24 70.2848 109.992 69.3728 109.496C68.4608 108.984 67.7568 108.264 67.2608 107.336C66.7648 106.408 66.5168 105.32 66.5168 104.072C66.5168 103.128 66.6528 102.288 66.9248 101.552C67.2128 100.8 67.6208 100.168 68.1488 99.656C68.6768 99.128 69.3168 98.728 70.0688 98.456C70.8208 98.168 71.6608 98.024 72.5888 98.024C73.1168 98.024 73.6848 98.096 74.2928 98.24C74.9168 98.384 75.5008 98.624 76.0448 98.96C76.3008 99.12 76.4688 99.312 76.5488 99.536C76.6288 99.76 76.6448 99.992 76.5968 100.232C76.5488 100.456 76.4448 100.656 76.2848 100.832C76.1408 100.992 75.9568 101.096 75.7328 101.144C75.5088 101.176 75.2608 101.12 74.9888 100.976C74.6368 100.768 74.2768 100.616 73.9088 100.52C73.5408 100.408 73.1888 100.352 72.8528 100.352C72.3248 100.352 71.8608 100.44 71.4608 100.616C71.0608 100.776 70.7168 101.016 70.4288 101.336C70.1568 101.64 69.9488 102.024 69.8048 102.488C69.6608 102.952 69.5888 103.488 69.5888 104.096C69.5888 105.28 69.8688 106.216 70.4288 106.904C71.0048 107.576 71.8128 107.912 72.8528 107.912C73.1888 107.912 73.5328 107.864 73.8848 107.768C74.2528 107.672 74.6208 107.52 74.9888 107.312C75.2608 107.168 75.5008 107.12 75.7088 107.168C75.9328 107.216 76.1168 107.328 76.2608 107.504C76.4048 107.664 76.4928 107.864 76.5248 108.104C76.5568 108.328 76.5248 108.552 76.4288 108.776C76.3488 109 76.1888 109.184 75.9488 109.328C75.4208 109.648 74.8608 109.88 74.2688 110.024C73.6768 110.168 73.1168 110.24 72.5888 110.24ZM83.1228 110.24C81.9068 110.24 80.8508 109.992 79.9548 109.496C79.0588 109 78.3628 108.296 77.8668 107.384C77.3708 106.456 77.1228 105.368 77.1228 104.12C77.1228 103.176 77.2588 102.336 77.5308 101.6C77.8188 100.848 78.2268 100.208 78.7548 99.68C79.2828 99.136 79.9148 98.728 80.6508 98.456C81.3868 98.168 82.2108 98.024 83.1228 98.024C84.3388 98.024 85.3948 98.272 86.2908 98.768C87.1868 99.264 87.8828 99.968 88.3788 100.88C88.8748 101.792 89.1228 102.872 89.1228 104.12C89.1228 105.064 88.9788 105.912 88.6908 106.664C88.4188 107.416 88.0188 108.064 87.4908 108.608C86.9628 109.136 86.3308 109.544 85.5948 109.832C84.8588 110.104 84.0348 110.24 83.1228 110.24ZM83.1228 107.96C83.7148 107.96 84.2348 107.816 84.6828 107.528C85.1308 107.24 85.4748 106.816 85.7148 106.256C85.9708 105.68 86.0988 104.968 86.0988 104.12C86.0988 102.84 85.8268 101.888 85.2828 101.264C84.7388 100.624 84.0188 100.304 83.1228 100.304C82.5308 100.304 82.0108 100.448 81.5628 100.736C81.1148 101.008 80.7628 101.432 80.5068 102.008C80.2668 102.568 80.1468 103.272 80.1468 104.12C80.1468 105.384 80.4188 106.344 80.9628 107C81.5068 107.64 82.2268 107.96 83.1228 107.96ZM95.6365 110.192C95.2365 110.192 94.8845 110.088 94.5805 109.88C94.2925 109.672 94.0525 109.352 93.8605 108.92L90.0445 100.064C89.9005 99.712 89.8445 99.384 89.8765 99.08C89.9245 98.776 90.0685 98.536 90.3085 98.36C90.5645 98.168 90.9085 98.072 91.3405 98.072C91.7085 98.072 92.0045 98.16 92.2285 98.336C92.4525 98.496 92.6525 98.808 92.8285 99.272L96.0685 107.36H95.3485L98.6845 99.248C98.8605 98.8 99.0605 98.496 99.2845 98.336C99.5245 98.16 99.8445 98.072 100.245 98.072C100.597 98.072 100.877 98.168 101.085 98.36C101.293 98.536 101.421 98.776 101.469 99.08C101.517 99.368 101.461 99.688 101.301 100.04L97.4125 108.92C97.2365 109.352 96.9965 109.672 96.6925 109.88C96.4045 110.088 96.0525 110.192 95.6365 110.192ZM108.61 110.24C107.282 110.24 106.138 109.992 105.178 109.496C104.218 109 103.474 108.296 102.946 107.384C102.434 106.472 102.178 105.392 102.178 104.144C102.178 102.928 102.426 101.864 102.922 100.952C103.434 100.04 104.13 99.328 105.01 98.816C105.906 98.288 106.922 98.024 108.058 98.024C108.89 98.024 109.634 98.16 110.29 98.432C110.962 98.704 111.53 99.096 111.994 99.608C112.474 100.12 112.834 100.744 113.074 101.48C113.33 102.2 113.458 103.016 113.458 103.928C113.458 104.216 113.354 104.44 113.146 104.6C112.954 104.744 112.674 104.816 112.306 104.816H104.602V103.088H111.346L110.962 103.448C110.962 102.712 110.85 102.096 110.626 101.6C110.418 101.104 110.106 100.728 109.69 100.472C109.29 100.2 108.786 100.064 108.178 100.064C107.506 100.064 106.93 100.224 106.45 100.544C105.986 100.848 105.626 101.288 105.37 101.864C105.13 102.424 105.01 103.096 105.01 103.88V104.048C105.01 105.36 105.314 106.344 105.922 107C106.546 107.64 107.458 107.96 108.658 107.96C109.074 107.96 109.538 107.912 110.05 107.816C110.578 107.704 111.074 107.52 111.538 107.264C111.874 107.072 112.17 106.992 112.426 107.024C112.682 107.04 112.882 107.128 113.026 107.288C113.186 107.448 113.282 107.648 113.314 107.888C113.346 108.112 113.298 108.344 113.17 108.584C113.058 108.824 112.858 109.032 112.57 109.208C112.01 109.56 111.362 109.824 110.626 110C109.906 110.16 109.234 110.24 108.61 110.24ZM116.89 110.192C116.394 110.192 116.01 110.064 115.738 109.808C115.482 109.536 115.354 109.152 115.354 108.656V99.584C115.354 99.088 115.482 98.712 115.738 98.456C115.994 98.2 116.354 98.072 116.818 98.072C117.282 98.072 117.642 98.2 117.898 98.456C118.154 98.712 118.282 99.088 118.282 99.584V101.096H118.042C118.266 100.136 118.706 99.408 119.362 98.912C120.018 98.416 120.89 98.12 121.978 98.024C122.314 97.992 122.578 98.08 122.77 98.288C122.978 98.48 123.098 98.784 123.13 99.2C123.162 99.6 123.066 99.928 122.842 100.184C122.634 100.424 122.314 100.568 121.882 100.616L121.354 100.664C120.378 100.76 119.642 101.064 119.146 101.576C118.65 102.072 118.402 102.776 118.402 103.688V108.656C118.402 109.152 118.274 109.536 118.018 109.808C117.762 110.064 117.386 110.192 116.89 110.192ZM132.036 110.192C131.572 110.192 131.212 110.064 130.956 109.808C130.716 109.552 130.596 109.184 130.596 108.704V94.424C130.596 93.928 130.716 93.552 130.956 93.296C131.212 93.024 131.54 92.888 131.94 92.888C132.308 92.888 132.58 92.96 132.756 93.104C132.948 93.232 133.172 93.456 133.428 93.776L142.62 105.704H141.996V94.352C141.996 93.888 142.116 93.528 142.356 93.272C142.612 93.016 142.972 92.888 143.436 92.888C143.9 92.888 144.252 93.016 144.492 93.272C144.732 93.528 144.852 93.888 144.852 94.352V108.752C144.852 109.2 144.74 109.552 144.516 109.808C144.292 110.064 143.988 110.192 143.604 110.192C143.236 110.192 142.94 110.12 142.716 109.976C142.508 109.832 142.276 109.6 142.02 109.28L132.852 97.352H133.452V108.704C133.452 109.184 133.332 109.552 133.092 109.808C132.852 110.064 132.5 110.192 132.036 110.192ZM153.565 110.24C152.237 110.24 151.093 109.992 150.133 109.496C149.173 109 148.429 108.296 147.901 107.384C147.389 106.472 147.133 105.392 147.133 104.144C147.133 102.928 147.381 101.864 147.877 100.952C148.389 100.04 149.085 99.328 149.965 98.816C150.861 98.288 151.877 98.024 153.013 98.024C153.845 98.024 154.589 98.16 155.245 98.432C155.917 98.704 156.485 99.096 156.949 99.608C157.429 100.12 157.789 100.744 158.029 101.48C158.285 102.2 158.413 103.016 158.413 103.928C158.413 104.216 158.309 104.44 158.101 104.6C157.909 104.744 157.629 104.816 157.261 104.816H149.557V103.088H156.301L155.917 103.448C155.917 102.712 155.805 102.096 155.581 101.6C155.373 101.104 155.061 100.728 154.645 100.472C154.245 100.2 153.741 100.064 153.133 100.064C152.461 100.064 151.885 100.224 151.405 100.544C150.941 100.848 150.581 101.288 150.325 101.864C150.085 102.424 149.965 103.096 149.965 103.88V104.048C149.965 105.36 150.269 106.344 150.877 107C151.501 107.64 152.413 107.96 153.613 107.96C154.029 107.96 154.493 107.912 155.005 107.816C155.533 107.704 156.029 107.52 156.493 107.264C156.829 107.072 157.125 106.992 157.381 107.024C157.637 107.04 157.837 107.128 157.981 107.288C158.141 107.448 158.237 107.648 158.269 107.888C158.301 108.112 158.253 108.344 158.125 108.584C158.013 108.824 157.813 109.032 157.525 109.208C156.965 109.56 156.317 109.824 155.581 110C154.861 110.16 154.189 110.24 153.565 110.24ZM164.658 110.192C164.258 110.192 163.914 110.096 163.626 109.904C163.338 109.696 163.106 109.376 162.93 108.944L159.45 100.064C159.306 99.68 159.258 99.344 159.306 99.056C159.37 98.752 159.522 98.512 159.762 98.336C160.002 98.16 160.322 98.072 160.722 98.072C161.074 98.072 161.362 98.16 161.586 98.336C161.81 98.496 162.002 98.808 162.162 99.272L165.066 107.264H164.514L167.514 99.08C167.642 98.728 167.81 98.472 168.018 98.312C168.242 98.152 168.53 98.072 168.882 98.072C169.234 98.072 169.522 98.16 169.746 98.336C169.97 98.496 170.138 98.744 170.25 99.08L173.202 107.264H172.698L175.626 99.2C175.786 98.768 175.986 98.472 176.226 98.312C176.482 98.152 176.762 98.072 177.066 98.072C177.45 98.072 177.746 98.168 177.954 98.36C178.162 98.552 178.282 98.8 178.314 99.104C178.346 99.392 178.29 99.712 178.146 100.064L174.69 108.944C174.53 109.36 174.298 109.672 173.994 109.88C173.706 110.088 173.362 110.192 172.962 110.192C172.562 110.192 172.21 110.088 171.906 109.88C171.618 109.672 171.394 109.36 171.234 108.944L168.09 100.616H169.458L166.386 108.92C166.226 109.352 166.002 109.672 165.714 109.88C165.426 110.088 165.074 110.192 164.658 110.192ZM187.866 110.192C187.418 110.192 187.074 110.064 186.834 109.808C186.594 109.552 186.474 109.2 186.474 108.752V94.328C186.474 93.864 186.602 93.512 186.858 93.272C187.114 93.016 187.466 92.888 187.914 92.888C188.314 92.888 188.626 92.968 188.85 93.128C189.09 93.272 189.306 93.528 189.498 93.896L195.426 104.864H194.658L200.586 93.896C200.778 93.528 200.986 93.272 201.21 93.128C201.434 92.968 201.746 92.888 202.146 92.888C202.594 92.888 202.938 93.016 203.178 93.272C203.418 93.512 203.538 93.864 203.538 94.328V108.752C203.538 109.2 203.418 109.552 203.178 109.808C202.954 110.064 202.61 110.192 202.146 110.192C201.698 110.192 201.354 110.064 201.114 109.808C200.874 109.552 200.754 109.2 200.754 108.752V97.64H201.282L196.242 106.832C196.082 107.104 195.914 107.304 195.738 107.432C195.562 107.56 195.322 107.624 195.018 107.624C194.714 107.624 194.466 107.56 194.274 107.432C194.082 107.288 193.914 107.088 193.77 106.832L188.682 97.616H189.258V108.752C189.258 109.2 189.138 109.552 188.898 109.808C188.674 110.064 188.33 110.192 187.866 110.192ZM210.358 110.24C209.51 110.24 208.75 110.08 208.078 109.76C207.422 109.424 206.902 108.976 206.518 108.416C206.15 107.856 205.966 107.224 205.966 106.52C205.966 105.656 206.19 104.976 206.638 104.48C207.086 103.968 207.814 103.6 208.822 103.376C209.83 103.152 211.182 103.04 212.878 103.04H214.078V104.768H212.902C211.91 104.768 211.118 104.816 210.526 104.912C209.934 105.008 209.51 105.176 209.254 105.416C209.014 105.64 208.894 105.96 208.894 106.376C208.894 106.904 209.078 107.336 209.446 107.672C209.814 108.008 210.326 108.176 210.982 108.176C211.51 108.176 211.974 108.056 212.374 107.816C212.79 107.56 213.118 107.216 213.358 106.784C213.598 106.352 213.718 105.856 213.718 105.296V102.536C213.718 101.736 213.542 101.16 213.19 100.808C212.838 100.456 212.246 100.28 211.414 100.28C210.95 100.28 210.446 100.336 209.902 100.448C209.374 100.56 208.814 100.752 208.222 101.024C207.918 101.168 207.646 101.208 207.406 101.144C207.182 101.08 207.006 100.952 206.878 100.76C206.75 100.552 206.686 100.328 206.686 100.088C206.686 99.848 206.75 99.616 206.878 99.392C207.006 99.152 207.222 98.976 207.526 98.864C208.262 98.56 208.966 98.344 209.638 98.216C210.326 98.088 210.95 98.024 211.51 98.024C212.662 98.024 213.606 98.2 214.342 98.552C215.094 98.904 215.654 99.44 216.022 100.16C216.39 100.864 216.574 101.776 216.574 102.896V108.656C216.574 109.152 216.454 109.536 216.214 109.808C215.974 110.064 215.63 110.192 215.182 110.192C214.734 110.192 214.382 110.064 214.126 109.808C213.886 109.536 213.766 109.152 213.766 108.656V107.504H213.958C213.846 108.064 213.622 108.552 213.286 108.968C212.966 109.368 212.558 109.68 212.062 109.904C211.566 110.128 210.998 110.24 210.358 110.24ZM224.515 110.24C223.475 110.24 222.603 110.064 221.899 109.712C221.211 109.36 220.699 108.848 220.363 108.176C220.027 107.488 219.859 106.64 219.859 105.632V100.52H218.611C218.227 100.52 217.931 100.424 217.723 100.232C217.515 100.024 217.411 99.744 217.411 99.392C217.411 99.024 217.515 98.744 217.723 98.552C217.931 98.36 218.227 98.264 218.611 98.264H219.859V96.08C219.859 95.584 219.987 95.208 220.243 94.952C220.515 94.696 220.891 94.568 221.371 94.568C221.851 94.568 222.219 94.696 222.475 94.952C222.731 95.208 222.859 95.584 222.859 96.08V98.264H225.403C225.787 98.264 226.083 98.36 226.291 98.552C226.499 98.744 226.603 99.024 226.603 99.392C226.603 99.744 226.499 100.024 226.291 100.232C226.083 100.424 225.787 100.52 225.403 100.52H222.859V105.464C222.859 106.232 223.027 106.808 223.363 107.192C223.699 107.576 224.243 107.768 224.995 107.768C225.267 107.768 225.507 107.744 225.715 107.696C225.923 107.648 226.107 107.616 226.267 107.6C226.459 107.584 226.619 107.648 226.747 107.792C226.875 107.92 226.939 108.192 226.939 108.608C226.939 108.928 226.883 109.216 226.771 109.472C226.675 109.712 226.491 109.88 226.219 109.976C226.011 110.04 225.739 110.096 225.403 110.144C225.067 110.208 224.771 110.24 224.515 110.24ZM233.177 110.24C231.945 110.24 230.873 109.992 229.961 109.496C229.049 108.984 228.345 108.264 227.849 107.336C227.353 106.408 227.105 105.32 227.105 104.072C227.105 103.128 227.241 102.288 227.513 101.552C227.801 100.8 228.209 100.168 228.737 99.656C229.265 99.128 229.905 98.728 230.657 98.456C231.409 98.168 232.249 98.024 233.177 98.024C233.705 98.024 234.273 98.096 234.881 98.24C235.505 98.384 236.089 98.624 236.633 98.96C236.889 99.12 237.057 99.312 237.137 99.536C237.217 99.76 237.233 99.992 237.185 100.232C237.137 100.456 237.033 100.656 236.873 100.832C236.729 100.992 236.545 101.096 236.321 101.144C236.097 101.176 235.849 101.12 235.577 100.976C235.225 100.768 234.865 100.616 234.497 100.52C234.129 100.408 233.777 100.352 233.441 100.352C232.913 100.352 232.449 100.44 232.049 100.616C231.649 100.776 231.305 101.016 231.017 101.336C230.745 101.64 230.537 102.024 230.393 102.488C230.249 102.952 230.177 103.488 230.177 104.096C230.177 105.28 230.457 106.216 231.017 106.904C231.593 107.576 232.401 107.912 233.441 107.912C233.777 107.912 234.121 107.864 234.473 107.768C234.841 107.672 235.209 107.52 235.577 107.312C235.849 107.168 236.089 107.12 236.297 107.168C236.521 107.216 236.705 107.328 236.849 107.504C236.993 107.664 237.081 107.864 237.113 108.104C237.145 108.328 237.113 108.552 237.017 108.776C236.937 109 236.777 109.184 236.537 109.328C236.009 109.648 235.449 109.88 234.857 110.024C234.265 110.168 233.705 110.24 233.177 110.24ZM240.081 110.192C239.601 110.192 239.233 110.064 238.977 109.808C238.721 109.536 238.593 109.152 238.593 108.656V94.4C238.593 93.904 238.721 93.528 238.977 93.272C239.233 93.016 239.601 92.888 240.081 92.888C240.561 92.888 240.929 93.016 241.185 93.272C241.457 93.528 241.593 93.904 241.593 94.4V100.616H241.257C241.609 99.768 242.153 99.128 242.889 98.696C243.641 98.248 244.489 98.024 245.433 98.024C246.377 98.024 247.153 98.2 247.761 98.552C248.369 98.904 248.825 99.44 249.129 100.16C249.433 100.864 249.585 101.76 249.585 102.848V108.656C249.585 109.152 249.457 109.536 249.201 109.808C248.945 110.064 248.577 110.192 248.097 110.192C247.617 110.192 247.241 110.064 246.969 109.808C246.713 109.536 246.585 109.152 246.585 108.656V102.992C246.585 102.08 246.409 101.416 246.057 101C245.721 100.584 245.193 100.376 244.473 100.376C243.593 100.376 242.889 100.656 242.361 101.216C241.849 101.76 241.593 102.488 241.593 103.4V108.656C241.593 109.68 241.089 110.192 240.081 110.192Z" fill="#95002B"/>
<path d="M41.9347 136.126C41.4961 136.126 41.0714 136.089 40.6607 136.014C40.2501 135.949 39.8627 135.846 39.4987 135.706C39.1347 135.566 38.8081 135.393 38.5187 135.188C38.3974 135.104 38.3087 135.001 38.2527 134.88C38.2061 134.759 38.1921 134.642 38.2107 134.53C38.2387 134.409 38.2901 134.306 38.3647 134.222C38.4487 134.138 38.5467 134.087 38.6587 134.068C38.7707 134.049 38.8921 134.087 39.0227 134.18C39.4521 134.469 39.9001 134.679 40.3667 134.81C40.8427 134.941 41.3654 135.006 41.9347 135.006C42.7561 135.006 43.3581 134.857 43.7407 134.558C44.1327 134.259 44.3287 133.867 44.3287 133.382C44.3287 132.981 44.1887 132.668 43.9087 132.444C43.6287 132.211 43.1574 132.029 42.4947 131.898L41.0107 131.59C40.1334 131.403 39.4754 131.095 39.0367 130.666C38.6074 130.237 38.3927 129.663 38.3927 128.944C38.3927 128.505 38.4814 128.109 38.6587 127.754C38.8361 127.39 39.0881 127.077 39.4147 126.816C39.7414 126.555 40.1241 126.354 40.5627 126.214C41.0107 126.074 41.5054 126.004 42.0467 126.004C42.6254 126.004 43.1667 126.083 43.6707 126.242C44.1841 126.401 44.6461 126.634 45.0567 126.942C45.1687 127.026 45.2434 127.129 45.2807 127.25C45.3181 127.362 45.3227 127.474 45.2947 127.586C45.2761 127.698 45.2247 127.791 45.1407 127.866C45.0661 127.941 44.9681 127.983 44.8467 127.992C44.7347 128.001 44.6087 127.959 44.4687 127.866C44.0954 127.605 43.7127 127.418 43.3207 127.306C42.9287 127.185 42.4994 127.124 42.0327 127.124C41.5567 127.124 41.1414 127.199 40.7867 127.348C40.4414 127.497 40.1707 127.707 39.9747 127.978C39.7881 128.239 39.6947 128.547 39.6947 128.902C39.6947 129.331 39.8254 129.667 40.0867 129.91C40.3481 130.153 40.7867 130.339 41.4027 130.47L42.8727 130.764C43.8061 130.96 44.4967 131.263 44.9447 131.674C45.4021 132.075 45.6307 132.617 45.6307 133.298C45.6307 133.727 45.5421 134.115 45.3647 134.46C45.1967 134.805 44.9541 135.104 44.6367 135.356C44.3194 135.599 43.9321 135.79 43.4747 135.93C43.0174 136.061 42.5041 136.126 41.9347 136.126ZM49.974 136.126C49.4234 136.126 48.9614 136.028 48.588 135.832C48.224 135.636 47.9487 135.351 47.762 134.978C47.5847 134.605 47.496 134.147 47.496 133.606V130.162H46.6C46.432 130.162 46.3014 130.12 46.208 130.036C46.1147 129.943 46.068 129.821 46.068 129.672C46.068 129.513 46.1147 129.392 46.208 129.308C46.3014 129.224 46.432 129.182 46.6 129.182H47.496V127.656C47.496 127.441 47.552 127.283 47.664 127.18C47.776 127.068 47.9347 127.012 48.14 127.012C48.3454 127.012 48.4994 127.068 48.602 127.18C48.714 127.283 48.77 127.441 48.77 127.656V129.182H50.464C50.6414 129.182 50.7767 129.224 50.87 129.308C50.9634 129.392 51.01 129.513 51.01 129.672C51.01 129.821 50.9634 129.943 50.87 130.036C50.7767 130.12 50.6414 130.162 50.464 130.162H48.77V133.494C48.77 134.007 48.8774 134.395 49.092 134.656C49.3067 134.917 49.6614 135.048 50.156 135.048C50.3334 135.048 50.4827 135.034 50.604 135.006C50.7254 134.969 50.8327 134.95 50.926 134.95C51.01 134.941 51.08 134.969 51.136 135.034C51.2014 135.099 51.234 135.221 51.234 135.398C51.234 135.529 51.2107 135.65 51.164 135.762C51.1267 135.865 51.0474 135.935 50.926 135.972C50.814 136.009 50.6647 136.042 50.478 136.07C50.2914 136.107 50.1234 136.126 49.974 136.126ZM54.3336 136.126C53.8669 136.126 53.4423 136.033 53.0596 135.846C52.6863 135.659 52.3923 135.407 52.1776 135.09C51.9723 134.773 51.8696 134.418 51.8696 134.026C51.8696 133.522 51.9956 133.125 52.2476 132.836C52.4996 132.547 52.9243 132.341 53.5216 132.22C54.1189 132.089 54.9216 132.024 55.9296 132.024H56.5876V132.836H55.9576C55.2389 132.836 54.6696 132.869 54.2496 132.934C53.8389 132.999 53.5496 133.116 53.3816 133.284C53.2136 133.443 53.1296 133.667 53.1296 133.956C53.1296 134.32 53.2556 134.619 53.5076 134.852C53.7689 135.085 54.1236 135.202 54.5716 135.202C54.9263 135.202 55.2389 135.118 55.5096 134.95C55.7803 134.773 55.9949 134.539 56.1536 134.25C56.3123 133.951 56.3916 133.611 56.3916 133.228V131.618C56.3916 131.067 56.2796 130.671 56.0556 130.428C55.8316 130.176 55.4536 130.05 54.9216 130.05C54.6136 130.05 54.2963 130.092 53.9696 130.176C53.6429 130.26 53.3023 130.391 52.9476 130.568C52.8076 130.633 52.6863 130.657 52.5836 130.638C52.4809 130.61 52.3969 130.554 52.3316 130.47C52.2756 130.377 52.2429 130.279 52.2336 130.176C52.2336 130.064 52.2569 129.957 52.3036 129.854C52.3596 129.751 52.4529 129.677 52.5836 129.63C52.9943 129.425 53.4003 129.28 53.8016 129.196C54.2123 129.103 54.5949 129.056 54.9496 129.056C55.5563 129.056 56.0556 129.154 56.4476 129.35C56.8396 129.537 57.1336 129.831 57.3296 130.232C57.5256 130.624 57.6236 131.128 57.6236 131.744V135.44C57.6236 135.655 57.5723 135.818 57.4696 135.93C57.3669 136.042 57.2176 136.098 57.0216 136.098C56.8349 136.098 56.6856 136.042 56.5736 135.93C56.4709 135.818 56.4196 135.655 56.4196 135.44V134.446H56.5456C56.4709 134.791 56.3309 135.09 56.1256 135.342C55.9203 135.594 55.6636 135.79 55.3556 135.93C55.0569 136.061 54.7163 136.126 54.3336 136.126ZM60.2864 136.098C60.0718 136.098 59.9084 136.042 59.7964 135.93C59.6844 135.818 59.6284 135.655 59.6284 135.44V129.728C59.6284 129.513 59.6844 129.355 59.7964 129.252C59.9084 129.14 60.0624 129.084 60.2584 129.084C60.4544 129.084 60.6038 129.14 60.7064 129.252C60.8184 129.355 60.8744 129.513 60.8744 129.728V130.806H60.7344C60.8838 130.246 61.1638 129.821 61.5744 129.532C61.9851 129.243 62.5031 129.079 63.1284 129.042C63.2778 129.033 63.3991 129.07 63.4924 129.154C63.5858 129.229 63.6371 129.359 63.6464 129.546C63.6558 129.723 63.6138 129.868 63.5204 129.98C63.4271 130.083 63.2824 130.143 63.0864 130.162L62.8344 130.176C62.2184 130.241 61.7424 130.442 61.4064 130.778C61.0798 131.114 60.9164 131.576 60.9164 132.164V135.44C60.9164 135.655 60.8604 135.818 60.7484 135.93C60.6458 136.042 60.4918 136.098 60.2864 136.098ZM67.9525 136.126C67.4019 136.126 66.9399 136.028 66.5665 135.832C66.2025 135.636 65.9272 135.351 65.7405 134.978C65.5632 134.605 65.4745 134.147 65.4745 133.606V130.162H64.5785C64.4105 130.162 64.2799 130.12 64.1865 130.036C64.0932 129.943 64.0465 129.821 64.0465 129.672C64.0465 129.513 64.0932 129.392 64.1865 129.308C64.2799 129.224 64.4105 129.182 64.5785 129.182H65.4745V127.656C65.4745 127.441 65.5305 127.283 65.6425 127.18C65.7545 127.068 65.9132 127.012 66.1185 127.012C66.3239 127.012 66.4779 127.068 66.5805 127.18C66.6925 127.283 66.7485 127.441 66.7485 127.656V129.182H68.4425C68.6199 129.182 68.7552 129.224 68.8485 129.308C68.9419 129.392 68.9885 129.513 68.9885 129.672C68.9885 129.821 68.9419 129.943 68.8485 130.036C68.7552 130.12 68.6199 130.162 68.4425 130.162H66.7485V133.494C66.7485 134.007 66.8559 134.395 67.0705 134.656C67.2852 134.917 67.6399 135.048 68.1345 135.048C68.3119 135.048 68.4612 135.034 68.5825 135.006C68.7039 134.969 68.8112 134.95 68.9045 134.95C68.9885 134.941 69.0585 134.969 69.1145 135.034C69.1799 135.099 69.2125 135.221 69.2125 135.398C69.2125 135.529 69.1892 135.65 69.1425 135.762C69.1052 135.865 69.0259 135.935 68.9045 135.972C68.7925 136.009 68.6432 136.042 68.4565 136.07C68.2699 136.107 68.1019 136.126 67.9525 136.126ZM74.8285 136.098C74.6232 136.098 74.4645 136.042 74.3525 135.93C74.2405 135.818 74.1845 135.655 74.1845 135.44V130.162H73.3445C73.1765 130.162 73.0458 130.12 72.9525 130.036C72.8592 129.943 72.8125 129.821 72.8125 129.672C72.8125 129.513 72.8592 129.392 72.9525 129.308C73.0458 129.224 73.1765 129.182 73.3445 129.182H74.5345L74.1845 129.518V129C74.1845 128.104 74.3992 127.423 74.8285 126.956C75.2672 126.489 75.9158 126.214 76.7745 126.13L77.1805 126.102C77.3392 126.083 77.4652 126.107 77.5585 126.172C77.6518 126.228 77.7125 126.303 77.7405 126.396C77.7778 126.489 77.7825 126.587 77.7545 126.69C77.7358 126.793 77.6938 126.881 77.6285 126.956C77.5632 127.031 77.4792 127.068 77.3765 127.068L76.9845 127.096C76.4525 127.133 76.0652 127.297 75.8225 127.586C75.5798 127.875 75.4585 128.291 75.4585 128.832V129.392L75.2765 129.182H79.0985C79.3038 129.182 79.4578 129.243 79.5605 129.364C79.6725 129.476 79.7285 129.644 79.7285 129.868V135.384C79.7285 135.599 79.6772 135.767 79.5745 135.888C79.4718 136.009 79.3132 136.07 79.0985 136.07C78.8932 136.07 78.7345 136.009 78.6225 135.888C78.5105 135.767 78.4545 135.599 78.4545 135.384V130.162H75.4585V135.44C75.4585 135.879 75.2485 136.098 74.8285 136.098ZM79.1125 127.6C78.8698 127.6 78.6785 127.535 78.5385 127.404C78.3985 127.264 78.3285 127.082 78.3285 126.858C78.3285 126.615 78.3985 126.433 78.5385 126.312C78.6785 126.181 78.8698 126.116 79.1125 126.116C79.3738 126.116 79.5698 126.181 79.7005 126.312C79.8405 126.433 79.9105 126.615 79.9105 126.858C79.9105 127.082 79.8405 127.264 79.7005 127.404C79.5698 127.535 79.3738 127.6 79.1125 127.6ZM82.4069 136.098C82.2109 136.098 82.0569 136.042 81.9449 135.93C81.8329 135.818 81.7769 135.655 81.7769 135.44V129.728C81.7769 129.513 81.8329 129.355 81.9449 129.252C82.0569 129.14 82.2109 129.084 82.4069 129.084C82.6029 129.084 82.7522 129.14 82.8549 129.252C82.9669 129.355 83.0229 129.513 83.0229 129.728V130.876L82.8689 130.666C83.0649 130.134 83.3822 129.733 83.8209 129.462C84.2689 129.191 84.7775 129.056 85.3469 129.056C85.8975 129.056 86.3502 129.154 86.7049 129.35C87.0595 129.546 87.3255 129.845 87.5029 130.246C87.6802 130.647 87.7689 131.156 87.7689 131.772V135.44C87.7689 135.655 87.7129 135.818 87.6009 135.93C87.4982 136.042 87.3442 136.098 87.1389 136.098C86.9335 136.098 86.7749 136.042 86.6629 135.93C86.5509 135.818 86.4949 135.655 86.4949 135.44V131.842C86.4949 131.235 86.3782 130.792 86.1449 130.512C85.9115 130.232 85.5382 130.092 85.0249 130.092C84.4275 130.092 83.9469 130.279 83.5829 130.652C83.2282 131.016 83.0509 131.511 83.0509 132.136V135.44C83.0509 135.879 82.8362 136.098 82.4069 136.098ZM92.3926 136.126C91.7953 136.126 91.2679 135.986 90.8106 135.706C90.3626 135.417 90.0126 135.006 89.7606 134.474C89.5086 133.933 89.3826 133.303 89.3826 132.584C89.3826 131.856 89.5039 131.231 89.7466 130.708C89.9986 130.176 90.3486 129.77 90.7966 129.49C91.2539 129.201 91.7859 129.056 92.3926 129.056C92.9993 129.056 93.5219 129.21 93.9606 129.518C94.3993 129.817 94.6933 130.218 94.8426 130.722H94.6886V126.676C94.6886 126.461 94.7399 126.303 94.8426 126.2C94.9546 126.088 95.1133 126.032 95.3186 126.032C95.5239 126.032 95.6826 126.088 95.7946 126.2C95.9066 126.303 95.9626 126.461 95.9626 126.676V135.44C95.9626 135.655 95.9066 135.818 95.7946 135.93C95.6826 136.042 95.5239 136.098 95.3186 136.098C95.1226 136.098 94.9686 136.042 94.8566 135.93C94.7446 135.818 94.6886 135.655 94.6886 135.44V134.166L94.8426 134.418C94.7026 134.941 94.4086 135.356 93.9606 135.664C93.5219 135.972 92.9993 136.126 92.3926 136.126ZM92.6866 135.118C93.0973 135.118 93.4519 135.02 93.7506 134.824C94.0586 134.628 94.2919 134.343 94.4506 133.97C94.6186 133.597 94.7026 133.135 94.7026 132.584C94.7026 131.763 94.5206 131.137 94.1566 130.708C93.7926 130.279 93.3026 130.064 92.6866 130.064C92.2853 130.064 91.9306 130.162 91.6226 130.358C91.3239 130.545 91.0906 130.825 90.9226 131.198C90.7546 131.571 90.6706 132.033 90.6706 132.584C90.6706 133.405 90.8526 134.035 91.2166 134.474C91.5899 134.903 92.0799 135.118 92.6866 135.118ZM103.826 136.126C103.359 136.126 102.934 136.033 102.552 135.846C102.178 135.659 101.884 135.407 101.67 135.09C101.464 134.773 101.362 134.418 101.362 134.026C101.362 133.522 101.488 133.125 101.74 132.836C101.992 132.547 102.416 132.341 103.014 132.22C103.611 132.089 104.414 132.024 105.422 132.024H106.08V132.836H105.45C104.731 132.836 104.162 132.869 103.742 132.934C103.331 132.999 103.042 133.116 102.874 133.284C102.706 133.443 102.622 133.667 102.622 133.956C102.622 134.32 102.748 134.619 103 134.852C103.261 135.085 103.616 135.202 104.064 135.202C104.418 135.202 104.731 135.118 105.002 134.95C105.272 134.773 105.487 134.539 105.646 134.25C105.804 133.951 105.884 133.611 105.884 133.228V131.618C105.884 131.067 105.772 130.671 105.548 130.428C105.324 130.176 104.946 130.05 104.414 130.05C104.106 130.05 103.788 130.092 103.462 130.176C103.135 130.26 102.794 130.391 102.44 130.568C102.3 130.633 102.178 130.657 102.076 130.638C101.973 130.61 101.889 130.554 101.824 130.47C101.768 130.377 101.735 130.279 101.726 130.176C101.726 130.064 101.749 129.957 101.796 129.854C101.852 129.751 101.945 129.677 102.076 129.63C102.486 129.425 102.892 129.28 103.294 129.196C103.704 129.103 104.087 129.056 104.442 129.056C105.048 129.056 105.548 129.154 105.94 129.35C106.332 129.537 106.626 129.831 106.822 130.232C107.018 130.624 107.116 131.128 107.116 131.744V135.44C107.116 135.655 107.064 135.818 106.962 135.93C106.859 136.042 106.71 136.098 106.514 136.098C106.327 136.098 106.178 136.042 106.066 135.93C105.963 135.818 105.912 135.655 105.912 135.44V134.446H106.038C105.963 134.791 105.823 135.09 105.618 135.342C105.412 135.594 105.156 135.79 104.848 135.93C104.549 136.061 104.208 136.126 103.826 136.126ZM109.751 136.098C109.555 136.098 109.401 136.042 109.289 135.93C109.177 135.818 109.121 135.655 109.121 135.44V129.728C109.121 129.513 109.177 129.355 109.289 129.252C109.401 129.14 109.555 129.084 109.751 129.084C109.947 129.084 110.096 129.14 110.199 129.252C110.311 129.355 110.367 129.513 110.367 129.728V130.876L110.213 130.666C110.409 130.134 110.726 129.733 111.165 129.462C111.613 129.191 112.121 129.056 112.691 129.056C113.241 129.056 113.694 129.154 114.049 129.35C114.403 129.546 114.669 129.845 114.847 130.246C115.024 130.647 115.113 131.156 115.113 131.772V135.44C115.113 135.655 115.057 135.818 114.945 135.93C114.842 136.042 114.688 136.098 114.483 136.098C114.277 136.098 114.119 136.042 114.007 135.93C113.895 135.818 113.839 135.655 113.839 135.44V131.842C113.839 131.235 113.722 130.792 113.489 130.512C113.255 130.232 112.882 130.092 112.369 130.092C111.771 130.092 111.291 130.279 110.927 130.652C110.572 131.016 110.395 131.511 110.395 132.136V135.44C110.395 135.879 110.18 136.098 109.751 136.098ZM119.736 136.126C119.139 136.126 118.612 135.986 118.154 135.706C117.706 135.417 117.356 135.006 117.104 134.474C116.852 133.933 116.726 133.303 116.726 132.584C116.726 131.856 116.848 131.231 117.09 130.708C117.342 130.176 117.692 129.77 118.14 129.49C118.598 129.201 119.13 129.056 119.736 129.056C120.343 129.056 120.866 129.21 121.304 129.518C121.743 129.817 122.037 130.218 122.186 130.722H122.032V126.676C122.032 126.461 122.084 126.303 122.186 126.2C122.298 126.088 122.457 126.032 122.662 126.032C122.868 126.032 123.026 126.088 123.138 126.2C123.25 126.303 123.306 126.461 123.306 126.676V135.44C123.306 135.655 123.25 135.818 123.138 135.93C123.026 136.042 122.868 136.098 122.662 136.098C122.466 136.098 122.312 136.042 122.2 135.93C122.088 135.818 122.032 135.655 122.032 135.44V134.166L122.186 134.418C122.046 134.941 121.752 135.356 121.304 135.664C120.866 135.972 120.343 136.126 119.736 136.126ZM120.03 135.118C120.441 135.118 120.796 135.02 121.094 134.824C121.402 134.628 121.636 134.343 121.794 133.97C121.962 133.597 122.046 133.135 122.046 132.584C122.046 131.763 121.864 131.137 121.5 130.708C121.136 130.279 120.646 130.064 120.03 130.064C119.629 130.064 119.274 130.162 118.966 130.358C118.668 130.545 118.434 130.825 118.266 131.198C118.098 131.571 118.014 132.033 118.014 132.584C118.014 133.405 118.196 134.035 118.56 134.474C118.934 134.903 119.424 135.118 120.03 135.118ZM129.784 136.098C129.597 136.098 129.452 136.042 129.35 135.93C129.247 135.818 129.196 135.669 129.196 135.482V126.648C129.196 126.452 129.247 126.303 129.35 126.2C129.462 126.088 129.611 126.032 129.798 126.032C129.966 126.032 130.096 126.065 130.19 126.13C130.292 126.195 130.386 126.307 130.47 126.466L134.222 133.508H133.788L137.54 126.466C137.624 126.307 137.712 126.195 137.806 126.13C137.899 126.065 138.03 126.032 138.198 126.032C138.384 126.032 138.529 126.088 138.632 126.2C138.734 126.303 138.786 126.452 138.786 126.648V135.482C138.786 135.669 138.734 135.818 138.632 135.93C138.538 136.042 138.394 136.098 138.198 136.098C138.002 136.098 137.852 136.042 137.75 135.93C137.656 135.818 137.61 135.669 137.61 135.482V127.936H137.918L134.558 134.222C134.483 134.343 134.404 134.437 134.32 134.502C134.245 134.558 134.138 134.586 133.998 134.586C133.867 134.586 133.755 134.553 133.662 134.488C133.578 134.423 133.503 134.334 133.438 134.222L130.036 127.922H130.372V135.482C130.372 135.669 130.32 135.818 130.218 135.93C130.124 136.042 129.98 136.098 129.784 136.098ZM144.167 136.126C143.43 136.126 142.795 135.986 142.263 135.706C141.74 135.417 141.334 135.011 141.045 134.488C140.756 133.956 140.611 133.331 140.611 132.612C140.611 131.903 140.751 131.282 141.031 130.75C141.32 130.218 141.712 129.803 142.207 129.504C142.711 129.205 143.285 129.056 143.929 129.056C144.386 129.056 144.797 129.135 145.161 129.294C145.534 129.443 145.852 129.663 146.113 129.952C146.374 130.241 146.57 130.596 146.701 131.016C146.841 131.427 146.911 131.893 146.911 132.416C146.911 132.565 146.864 132.682 146.771 132.766C146.687 132.841 146.561 132.878 146.393 132.878H141.605V132.066H146.071L145.833 132.262C145.833 131.777 145.758 131.366 145.609 131.03C145.469 130.685 145.259 130.423 144.979 130.246C144.708 130.069 144.368 129.98 143.957 129.98C143.509 129.98 143.126 130.087 142.809 130.302C142.492 130.507 142.249 130.801 142.081 131.184C141.913 131.557 141.829 131.991 141.829 132.486V132.57C141.829 133.41 142.03 134.045 142.431 134.474C142.832 134.903 143.411 135.118 144.167 135.118C144.466 135.118 144.769 135.081 145.077 135.006C145.394 134.931 145.698 134.796 145.987 134.6C146.127 134.516 146.253 134.479 146.365 134.488C146.486 134.488 146.584 134.525 146.659 134.6C146.734 134.665 146.78 134.749 146.799 134.852C146.818 134.945 146.804 135.048 146.757 135.16C146.71 135.272 146.622 135.37 146.491 135.454C146.183 135.669 145.814 135.837 145.385 135.958C144.965 136.07 144.559 136.126 144.167 136.126ZM149.154 136.098C148.939 136.098 148.776 136.042 148.664 135.93C148.552 135.818 148.496 135.655 148.496 135.44V129.728C148.496 129.513 148.552 129.355 148.664 129.252C148.776 129.14 148.93 129.084 149.126 129.084C149.322 129.084 149.471 129.14 149.574 129.252C149.686 129.355 149.742 129.513 149.742 129.728V130.806H149.602C149.751 130.246 150.031 129.821 150.442 129.532C150.852 129.243 151.37 129.079 151.996 129.042C152.145 129.033 152.266 129.07 152.36 129.154C152.453 129.229 152.504 129.359 152.514 129.546C152.523 129.723 152.481 129.868 152.388 129.98C152.294 130.083 152.15 130.143 151.954 130.162L151.702 130.176C151.086 130.241 150.61 130.442 150.274 130.778C149.947 131.114 149.784 131.576 149.784 132.164V135.44C149.784 135.655 149.728 135.818 149.616 135.93C149.513 136.042 149.359 136.098 149.154 136.098ZM154.267 136.098C154.052 136.098 153.889 136.042 153.777 135.93C153.665 135.818 153.609 135.655 153.609 135.44V129.728C153.609 129.513 153.665 129.355 153.777 129.252C153.889 129.14 154.043 129.084 154.239 129.084C154.435 129.084 154.584 129.14 154.687 129.252C154.799 129.355 154.855 129.513 154.855 129.728V130.806H154.715C154.864 130.246 155.144 129.821 155.555 129.532C155.966 129.243 156.484 129.079 157.109 129.042C157.258 129.033 157.38 129.07 157.473 129.154C157.566 129.229 157.618 129.359 157.627 129.546C157.636 129.723 157.594 129.868 157.501 129.98C157.408 130.083 157.263 130.143 157.067 130.162L156.815 130.176C156.199 130.241 155.723 130.442 155.387 130.778C155.06 131.114 154.897 131.576 154.897 132.164V135.44C154.897 135.655 154.841 135.818 154.729 135.93C154.626 136.042 154.472 136.098 154.267 136.098ZM160.714 138.618C160.565 138.618 160.439 138.576 160.336 138.492C160.243 138.417 160.187 138.31 160.168 138.17C160.159 138.039 160.187 137.899 160.252 137.75L161.204 135.594V136.126L158.558 129.966C158.493 129.807 158.469 129.663 158.488 129.532C158.507 129.401 158.567 129.294 158.67 129.21C158.782 129.126 158.931 129.084 159.118 129.084C159.277 129.084 159.403 129.121 159.496 129.196C159.589 129.271 159.678 129.401 159.762 129.588L161.96 135.006H161.568L163.808 129.588C163.883 129.401 163.971 129.271 164.074 129.196C164.177 129.121 164.317 129.084 164.494 129.084C164.653 129.084 164.774 129.126 164.858 129.21C164.951 129.294 165.007 129.401 165.026 129.532C165.045 129.663 165.017 129.803 164.942 129.952L161.414 138.114C161.321 138.31 161.223 138.441 161.12 138.506C161.027 138.581 160.891 138.618 160.714 138.618ZM172.857 136.126C172.306 136.126 171.844 136.028 171.471 135.832C171.107 135.636 170.832 135.351 170.645 134.978C170.468 134.605 170.379 134.147 170.379 133.606V130.162H169.483C169.315 130.162 169.184 130.12 169.091 130.036C168.998 129.943 168.951 129.821 168.951 129.672C168.951 129.513 168.998 129.392 169.091 129.308C169.184 129.224 169.315 129.182 169.483 129.182H170.379V127.656C170.379 127.441 170.435 127.283 170.547 127.18C170.659 127.068 170.818 127.012 171.023 127.012C171.228 127.012 171.382 127.068 171.485 127.18C171.597 127.283 171.653 127.441 171.653 127.656V129.182H173.347C173.524 129.182 173.66 129.224 173.753 129.308C173.846 129.392 173.893 129.513 173.893 129.672C173.893 129.821 173.846 129.943 173.753 130.036C173.66 130.12 173.524 130.162 173.347 130.162H171.653V133.494C171.653 134.007 171.76 134.395 171.975 134.656C172.19 134.917 172.544 135.048 173.039 135.048C173.216 135.048 173.366 135.034 173.487 135.006C173.608 134.969 173.716 134.95 173.809 134.95C173.893 134.941 173.963 134.969 174.019 135.034C174.084 135.099 174.117 135.221 174.117 135.398C174.117 135.529 174.094 135.65 174.047 135.762C174.01 135.865 173.93 135.935 173.809 135.972C173.697 136.009 173.548 136.042 173.361 136.07C173.174 136.107 173.006 136.126 172.857 136.126ZM177.876 136.126C177.204 136.126 176.621 135.981 176.126 135.692C175.631 135.403 175.249 134.992 174.978 134.46C174.707 133.928 174.572 133.303 174.572 132.584C174.572 132.043 174.647 131.557 174.796 131.128C174.955 130.689 175.179 130.316 175.468 130.008C175.757 129.7 176.103 129.467 176.504 129.308C176.915 129.14 177.372 129.056 177.876 129.056C178.548 129.056 179.131 129.201 179.626 129.49C180.121 129.779 180.503 130.19 180.774 130.722C181.045 131.245 181.18 131.865 181.18 132.584C181.18 133.125 181.101 133.615 180.942 134.054C180.793 134.493 180.573 134.866 180.284 135.174C179.995 135.482 179.645 135.72 179.234 135.888C178.833 136.047 178.38 136.126 177.876 136.126ZM177.876 135.118C178.287 135.118 178.641 135.02 178.94 134.824C179.248 134.628 179.481 134.343 179.64 133.97C179.808 133.597 179.892 133.135 179.892 132.584C179.892 131.763 179.71 131.137 179.346 130.708C178.982 130.279 178.492 130.064 177.876 130.064C177.475 130.064 177.12 130.162 176.812 130.358C176.513 130.545 176.28 130.825 176.112 131.198C175.944 131.571 175.86 132.033 175.86 132.584C175.86 133.405 176.042 134.035 176.406 134.474C176.779 134.903 177.269 135.118 177.876 135.118ZM189.528 138.646C189.024 138.646 188.534 138.59 188.058 138.478C187.592 138.366 187.167 138.193 186.784 137.96C186.663 137.885 186.579 137.797 186.532 137.694C186.495 137.601 186.486 137.503 186.504 137.4C186.532 137.297 186.579 137.204 186.644 137.12C186.719 137.045 186.803 136.994 186.896 136.966C186.999 136.947 187.102 136.971 187.204 137.036C187.615 137.269 188.007 137.428 188.38 137.512C188.754 137.596 189.108 137.638 189.444 137.638C190.107 137.638 190.602 137.465 190.928 137.12C191.264 136.784 191.432 136.289 191.432 135.636V134.124H191.558C191.428 134.647 191.134 135.062 190.676 135.37C190.228 135.678 189.706 135.832 189.108 135.832C188.492 135.832 187.956 135.692 187.498 135.412C187.041 135.123 186.686 134.726 186.434 134.222C186.182 133.709 186.056 133.116 186.056 132.444C186.056 131.931 186.126 131.469 186.266 131.058C186.416 130.638 186.621 130.283 186.882 129.994C187.153 129.695 187.475 129.467 187.848 129.308C188.222 129.14 188.642 129.056 189.108 129.056C189.715 129.056 190.242 129.21 190.69 129.518C191.138 129.826 191.428 130.241 191.558 130.764L191.404 130.96V129.728C191.404 129.513 191.46 129.355 191.572 129.252C191.684 129.14 191.843 129.084 192.048 129.084C192.244 129.084 192.398 129.14 192.51 129.252C192.622 129.355 192.678 129.513 192.678 129.728V135.468C192.678 136.523 192.408 137.316 191.866 137.848C191.334 138.38 190.555 138.646 189.528 138.646ZM189.388 134.824C189.808 134.824 190.168 134.731 190.466 134.544C190.774 134.348 191.008 134.073 191.166 133.718C191.334 133.354 191.418 132.929 191.418 132.444C191.418 131.707 191.236 131.128 190.872 130.708C190.508 130.279 190.014 130.064 189.388 130.064C188.968 130.064 188.604 130.162 188.296 130.358C187.998 130.545 187.764 130.815 187.596 131.17C187.428 131.525 187.344 131.949 187.344 132.444C187.344 133.172 187.526 133.751 187.89 134.18C188.264 134.609 188.763 134.824 189.388 134.824ZM197.87 136.126C197.133 136.126 196.498 135.986 195.966 135.706C195.444 135.417 195.038 135.011 194.748 134.488C194.459 133.956 194.314 133.331 194.314 132.612C194.314 131.903 194.454 131.282 194.734 130.75C195.024 130.218 195.416 129.803 195.91 129.504C196.414 129.205 196.988 129.056 197.632 129.056C198.09 129.056 198.5 129.135 198.864 129.294C199.238 129.443 199.555 129.663 199.816 129.952C200.078 130.241 200.274 130.596 200.404 131.016C200.544 131.427 200.614 131.893 200.614 132.416C200.614 132.565 200.568 132.682 200.474 132.766C200.39 132.841 200.264 132.878 200.096 132.878H195.308V132.066H199.774L199.536 132.262C199.536 131.777 199.462 131.366 199.312 131.03C199.172 130.685 198.962 130.423 198.682 130.246C198.412 130.069 198.071 129.98 197.66 129.98C197.212 129.98 196.83 130.087 196.512 130.302C196.195 130.507 195.952 130.801 195.784 131.184C195.616 131.557 195.532 131.991 195.532 132.486V132.57C195.532 133.41 195.733 134.045 196.134 134.474C196.536 134.903 197.114 135.118 197.87 135.118C198.169 135.118 198.472 135.081 198.78 135.006C199.098 134.931 199.401 134.796 199.69 134.6C199.83 134.516 199.956 134.479 200.068 134.488C200.19 134.488 200.288 134.525 200.362 134.6C200.437 134.665 200.484 134.749 200.502 134.852C200.521 134.945 200.507 135.048 200.46 135.16C200.414 135.272 200.325 135.37 200.194 135.454C199.886 135.669 199.518 135.837 199.088 135.958C198.668 136.07 198.262 136.126 197.87 136.126ZM205.013 136.126C204.462 136.126 204 136.028 203.627 135.832C203.263 135.636 202.988 135.351 202.801 134.978C202.624 134.605 202.535 134.147 202.535 133.606V130.162H201.639C201.471 130.162 201.34 130.12 201.247 130.036C201.154 129.943 201.107 129.821 201.107 129.672C201.107 129.513 201.154 129.392 201.247 129.308C201.34 129.224 201.471 129.182 201.639 129.182H202.535V127.656C202.535 127.441 202.591 127.283 202.703 127.18C202.815 127.068 202.974 127.012 203.179 127.012C203.384 127.012 203.538 127.068 203.641 127.18C203.753 127.283 203.809 127.441 203.809 127.656V129.182H205.503C205.68 129.182 205.816 129.224 205.909 129.308C206.002 129.392 206.049 129.513 206.049 129.672C206.049 129.821 206.002 129.943 205.909 130.036C205.816 130.12 205.68 130.162 205.503 130.162H203.809V133.494C203.809 134.007 203.916 134.395 204.131 134.656C204.346 134.917 204.7 135.048 205.195 135.048C205.372 135.048 205.522 135.034 205.643 135.006C205.764 134.969 205.872 134.95 205.965 134.95C206.049 134.941 206.119 134.969 206.175 135.034C206.24 135.099 206.273 135.221 206.273 135.398C206.273 135.529 206.25 135.65 206.203 135.762C206.166 135.865 206.086 135.935 205.965 135.972C205.853 136.009 205.704 136.042 205.517 136.07C205.33 136.107 205.162 136.126 205.013 136.126ZM211.483 136.098C211.287 136.098 211.133 136.042 211.021 135.93C210.909 135.818 210.853 135.655 210.853 135.44V126.676C210.853 126.461 210.909 126.303 211.021 126.2C211.133 126.088 211.287 126.032 211.483 126.032C211.688 126.032 211.847 126.088 211.959 126.2C212.071 126.303 212.127 126.461 212.127 126.676V132.192H212.155L214.899 129.518C215.039 129.378 215.165 129.271 215.277 129.196C215.389 129.121 215.534 129.084 215.711 129.084C215.888 129.084 216.024 129.131 216.117 129.224C216.21 129.308 216.257 129.42 216.257 129.56C216.257 129.691 216.192 129.821 216.061 129.952L213.149 132.78V132.15L216.327 135.216C216.458 135.347 216.518 135.482 216.509 135.622C216.509 135.762 216.458 135.879 216.355 135.972C216.262 136.056 216.136 136.098 215.977 136.098C215.79 136.098 215.636 136.061 215.515 135.986C215.403 135.911 215.272 135.795 215.123 135.636L212.155 132.836H212.127V135.44C212.127 135.879 211.912 136.098 211.483 136.098ZM218.592 136.098C218.396 136.098 218.242 136.042 218.13 135.93C218.018 135.818 217.962 135.655 217.962 135.44V129.728C217.962 129.513 218.018 129.355 218.13 129.252C218.242 129.14 218.396 129.084 218.592 129.084C218.788 129.084 218.938 129.14 219.04 129.252C219.152 129.355 219.208 129.513 219.208 129.728V130.876L219.054 130.666C219.25 130.134 219.568 129.733 220.006 129.462C220.454 129.191 220.963 129.056 221.532 129.056C222.083 129.056 222.536 129.154 222.89 129.35C223.245 129.546 223.511 129.845 223.688 130.246C223.866 130.647 223.954 131.156 223.954 131.772V135.44C223.954 135.655 223.898 135.818 223.786 135.93C223.684 136.042 223.53 136.098 223.324 136.098C223.119 136.098 222.96 136.042 222.848 135.93C222.736 135.818 222.68 135.655 222.68 135.44V131.842C222.68 131.235 222.564 130.792 222.33 130.512C222.097 130.232 221.724 130.092 221.21 130.092C220.613 130.092 220.132 130.279 219.768 130.652C219.414 131.016 219.236 131.511 219.236 132.136V135.44C219.236 135.879 219.022 136.098 218.592 136.098ZM228.872 136.126C228.2 136.126 227.617 135.981 227.122 135.692C226.627 135.403 226.245 134.992 225.974 134.46C225.703 133.928 225.568 133.303 225.568 132.584C225.568 132.043 225.643 131.557 225.792 131.128C225.951 130.689 226.175 130.316 226.464 130.008C226.753 129.7 227.099 129.467 227.5 129.308C227.911 129.14 228.368 129.056 228.872 129.056C229.544 129.056 230.127 129.201 230.622 129.49C231.117 129.779 231.499 130.19 231.77 130.722C232.041 131.245 232.176 131.865 232.176 132.584C232.176 133.125 232.097 133.615 231.938 134.054C231.789 134.493 231.569 134.866 231.28 135.174C230.991 135.482 230.641 135.72 230.23 135.888C229.829 136.047 229.376 136.126 228.872 136.126ZM228.872 135.118C229.283 135.118 229.637 135.02 229.936 134.824C230.244 134.628 230.477 134.343 230.636 133.97C230.804 133.597 230.888 133.135 230.888 132.584C230.888 131.763 230.706 131.137 230.342 130.708C229.978 130.279 229.488 130.064 228.872 130.064C228.471 130.064 228.116 130.162 227.808 130.358C227.509 130.545 227.276 130.825 227.108 131.198C226.94 131.571 226.856 132.033 226.856 132.584C226.856 133.405 227.038 134.035 227.402 134.474C227.775 134.903 228.265 135.118 228.872 135.118ZM236.121 136.098C235.943 136.098 235.789 136.056 235.659 135.972C235.528 135.879 235.425 135.729 235.351 135.524L233.265 129.966C233.199 129.789 233.181 129.635 233.209 129.504C233.237 129.373 233.302 129.271 233.405 129.196C233.507 129.121 233.643 129.084 233.811 129.084C233.969 129.084 234.095 129.121 234.189 129.196C234.282 129.271 234.361 129.406 234.427 129.602L236.331 134.978H235.995L237.955 129.574C238.02 129.406 238.104 129.285 238.207 129.21C238.319 129.126 238.454 129.084 238.613 129.084C238.781 129.084 238.921 129.126 239.033 129.21C239.145 129.285 239.224 129.406 239.271 129.574L241.203 134.978H240.881L242.813 129.574C242.878 129.387 242.962 129.261 243.065 129.196C243.167 129.121 243.293 129.084 243.443 129.084C243.611 129.084 243.737 129.126 243.821 129.21C243.905 129.294 243.951 129.406 243.961 129.546C243.979 129.677 243.961 129.817 243.905 129.966L241.819 135.524C241.753 135.72 241.651 135.865 241.511 135.958C241.38 136.051 241.226 136.098 241.049 136.098C240.871 136.098 240.713 136.051 240.573 135.958C240.442 135.865 240.339 135.72 240.265 135.524L238.263 130.036H238.907L236.905 135.524C236.83 135.72 236.727 135.865 236.597 135.958C236.466 136.051 236.307 136.098 236.121 136.098ZM52.5973 157.126C52.1306 157.126 51.7059 157.033 51.3233 156.846C50.9499 156.659 50.6559 156.407 50.4413 156.09C50.2359 155.773 50.1333 155.418 50.1333 155.026C50.1333 154.522 50.2593 154.125 50.5113 153.836C50.7633 153.547 51.1879 153.341 51.7853 153.22C52.3826 153.089 53.1853 153.024 54.1933 153.024H54.8513V153.836H54.2213C53.5026 153.836 52.9333 153.869 52.5133 153.934C52.1026 153.999 51.8133 154.116 51.6453 154.284C51.4773 154.443 51.3933 154.667 51.3933 154.956C51.3933 155.32 51.5193 155.619 51.7713 155.852C52.0326 156.085 52.3873 156.202 52.8353 156.202C53.1899 156.202 53.5026 156.118 53.7733 155.95C54.0439 155.773 54.2586 155.539 54.4173 155.25C54.5759 154.951 54.6553 154.611 54.6553 154.228V152.618C54.6553 152.067 54.5433 151.671 54.3193 151.428C54.0953 151.176 53.7173 151.05 53.1853 151.05C52.8773 151.05 52.5599 151.092 52.2333 151.176C51.9066 151.26 51.5659 151.391 51.2113 151.568C51.0713 151.633 50.9499 151.657 50.8473 151.638C50.7446 151.61 50.6606 151.554 50.5953 151.47C50.5393 151.377 50.5066 151.279 50.4973 151.176C50.4973 151.064 50.5206 150.957 50.5673 150.854C50.6233 150.751 50.7166 150.677 50.8473 150.63C51.2579 150.425 51.6639 150.28 52.0653 150.196C52.4759 150.103 52.8586 150.056 53.2133 150.056C53.8199 150.056 54.3193 150.154 54.7113 150.35C55.1033 150.537 55.3973 150.831 55.5933 151.232C55.7893 151.624 55.8873 152.128 55.8873 152.744V156.44C55.8873 156.655 55.8359 156.818 55.7333 156.93C55.6306 157.042 55.4813 157.098 55.2853 157.098C55.0986 157.098 54.9493 157.042 54.8373 156.93C54.7346 156.818 54.6833 156.655 54.6833 156.44V155.446H54.8093C54.7346 155.791 54.5946 156.09 54.3893 156.342C54.1839 156.594 53.9273 156.79 53.6193 156.93C53.3206 157.061 52.9799 157.126 52.5973 157.126ZM58.5221 157.098C58.3261 157.098 58.1721 157.042 58.0601 156.93C57.9481 156.818 57.8921 156.655 57.8921 156.44V150.728C57.8921 150.513 57.9481 150.355 58.0601 150.252C58.1721 150.14 58.3261 150.084 58.5221 150.084C58.7181 150.084 58.8675 150.14 58.9701 150.252C59.0821 150.355 59.1381 150.513 59.1381 150.728V151.876L58.9841 151.666C59.1801 151.134 59.4975 150.733 59.9361 150.462C60.3841 150.191 60.8928 150.056 61.4621 150.056C62.0128 150.056 62.4655 150.154 62.8201 150.35C63.1748 150.546 63.4408 150.845 63.6181 151.246C63.7955 151.647 63.8841 152.156 63.8841 152.772V156.44C63.8841 156.655 63.8281 156.818 63.7161 156.93C63.6135 157.042 63.4595 157.098 63.2541 157.098C63.0488 157.098 62.8901 157.042 62.7781 156.93C62.6661 156.818 62.6101 156.655 62.6101 156.44V152.842C62.6101 152.235 62.4935 151.792 62.2601 151.512C62.0268 151.232 61.6535 151.092 61.1401 151.092C60.5428 151.092 60.0621 151.279 59.6981 151.652C59.3435 152.016 59.1661 152.511 59.1661 153.136V156.44C59.1661 156.879 58.9515 157.098 58.5221 157.098ZM68.5078 157.126C67.9105 157.126 67.3832 156.986 66.9258 156.706C66.4778 156.417 66.1278 156.006 65.8758 155.474C65.6238 154.933 65.4978 154.303 65.4978 153.584C65.4978 152.856 65.6192 152.231 65.8618 151.708C66.1138 151.176 66.4638 150.77 66.9118 150.49C67.3692 150.201 67.9012 150.056 68.5078 150.056C69.1145 150.056 69.6372 150.21 70.0758 150.518C70.5145 150.817 70.8085 151.218 70.9578 151.722H70.8038V147.676C70.8038 147.461 70.8552 147.303 70.9578 147.2C71.0698 147.088 71.2285 147.032 71.4338 147.032C71.6392 147.032 71.7978 147.088 71.9098 147.2C72.0218 147.303 72.0778 147.461 72.0778 147.676V156.44C72.0778 156.655 72.0218 156.818 71.9098 156.93C71.7978 157.042 71.6392 157.098 71.4338 157.098C71.2378 157.098 71.0838 157.042 70.9718 156.93C70.8598 156.818 70.8038 156.655 70.8038 156.44V155.166L70.9578 155.418C70.8178 155.941 70.5238 156.356 70.0758 156.664C69.6372 156.972 69.1145 157.126 68.5078 157.126ZM68.8018 156.118C69.2125 156.118 69.5672 156.02 69.8658 155.824C70.1738 155.628 70.4072 155.343 70.5658 154.97C70.7338 154.597 70.8178 154.135 70.8178 153.584C70.8178 152.763 70.6358 152.137 70.2718 151.708C69.9078 151.279 69.4178 151.064 68.8018 151.064C68.4005 151.064 68.0458 151.162 67.7378 151.358C67.4392 151.545 67.2058 151.825 67.0378 152.198C66.8698 152.571 66.7858 153.033 66.7858 153.584C66.7858 154.405 66.9678 155.035 67.3318 155.474C67.7052 155.903 68.1952 156.118 68.8018 156.118ZM80.725 157.126C80.0344 157.126 79.437 156.981 78.933 156.692C78.429 156.393 78.0417 155.978 77.771 155.446C77.5004 154.905 77.365 154.27 77.365 153.542C77.365 153.001 77.4397 152.515 77.589 152.086C77.7477 151.657 77.9717 151.293 78.261 150.994C78.5504 150.686 78.9004 150.453 79.311 150.294C79.731 150.135 80.2024 150.056 80.725 150.056C81.0517 150.056 81.397 150.107 81.761 150.21C82.125 150.313 82.461 150.481 82.769 150.714C82.8717 150.789 82.937 150.877 82.965 150.98C82.993 151.073 82.993 151.171 82.965 151.274C82.9464 151.377 82.8997 151.465 82.825 151.54C82.7597 151.605 82.671 151.643 82.559 151.652C82.4564 151.661 82.3444 151.629 82.223 151.554C81.999 151.386 81.761 151.265 81.509 151.19C81.2664 151.115 81.033 151.078 80.809 151.078C80.4637 151.078 80.1557 151.134 79.885 151.246C79.6237 151.358 79.3997 151.521 79.213 151.736C79.0357 151.941 78.9004 152.198 78.807 152.506C78.7137 152.805 78.667 153.155 78.667 153.556C78.667 154.349 78.8537 154.975 79.227 155.432C79.6004 155.88 80.1277 156.104 80.809 156.104C81.033 156.104 81.2664 156.071 81.509 156.006C81.7517 155.931 81.9897 155.81 82.223 155.642C82.3444 155.567 82.4564 155.539 82.559 155.558C82.6617 155.567 82.7457 155.609 82.811 155.684C82.8857 155.749 82.9324 155.833 82.951 155.936C82.9697 156.029 82.9604 156.127 82.923 156.23C82.895 156.333 82.8297 156.417 82.727 156.482C82.4284 156.706 82.1017 156.869 81.747 156.972C81.3924 157.075 81.0517 157.126 80.725 157.126ZM87.0401 157.126C86.3681 157.126 85.7848 156.981 85.2901 156.692C84.7955 156.403 84.4128 155.992 84.1421 155.46C83.8715 154.928 83.7361 154.303 83.7361 153.584C83.7361 153.043 83.8108 152.557 83.9601 152.128C84.1188 151.689 84.3428 151.316 84.6321 151.008C84.9215 150.7 85.2668 150.467 85.6681 150.308C86.0788 150.14 86.5361 150.056 87.0401 150.056C87.7121 150.056 88.2955 150.201 88.7901 150.49C89.2848 150.779 89.6675 151.19 89.9381 151.722C90.2088 152.245 90.3441 152.865 90.3441 153.584C90.3441 154.125 90.2648 154.615 90.1061 155.054C89.9568 155.493 89.7375 155.866 89.4481 156.174C89.1588 156.482 88.8088 156.72 88.3981 156.888C87.9968 157.047 87.5441 157.126 87.0401 157.126ZM87.0401 156.118C87.4508 156.118 87.8055 156.02 88.1041 155.824C88.4121 155.628 88.6455 155.343 88.8041 154.97C88.9721 154.597 89.0561 154.135 89.0561 153.584C89.0561 152.763 88.8741 152.137 88.5101 151.708C88.1461 151.279 87.6561 151.064 87.0401 151.064C86.6388 151.064 86.2841 151.162 85.9761 151.358C85.6775 151.545 85.4441 151.825 85.2761 152.198C85.1081 152.571 85.0241 153.033 85.0241 153.584C85.0241 154.405 85.2061 155.035 85.5701 155.474C85.9435 155.903 86.4335 156.118 87.0401 156.118ZM92.6061 157.098C92.4101 157.098 92.2561 157.042 92.1441 156.93C92.0321 156.818 91.9761 156.655 91.9761 156.44V150.728C91.9761 150.513 92.0321 150.355 92.1441 150.252C92.2561 150.14 92.4101 150.084 92.6061 150.084C92.8021 150.084 92.9514 150.14 93.0541 150.252C93.1661 150.355 93.2221 150.513 93.2221 150.728V151.876L93.0681 151.666C93.2641 151.134 93.5814 150.733 94.0201 150.462C94.4681 150.191 94.9768 150.056 95.5461 150.056C96.0968 150.056 96.5494 150.154 96.9041 150.35C97.2588 150.546 97.5248 150.845 97.7021 151.246C97.8794 151.647 97.9681 152.156 97.9681 152.772V156.44C97.9681 156.655 97.9121 156.818 97.8001 156.93C97.6974 157.042 97.5434 157.098 97.3381 157.098C97.1328 157.098 96.9741 157.042 96.8621 156.93C96.7501 156.818 96.6941 156.655 96.6941 156.44V152.842C96.6941 152.235 96.5774 151.792 96.3441 151.512C96.1108 151.232 95.7374 151.092 95.2241 151.092C94.6268 151.092 94.1461 151.279 93.7821 151.652C93.4274 152.016 93.2501 152.511 93.2501 153.136V156.44C93.2501 156.879 93.0354 157.098 92.6061 157.098ZM100.618 157.098C100.422 157.098 100.268 157.042 100.156 156.93C100.044 156.818 99.9878 156.655 99.9878 156.44V150.728C99.9878 150.513 100.044 150.355 100.156 150.252C100.268 150.14 100.422 150.084 100.618 150.084C100.814 150.084 100.963 150.14 101.066 150.252C101.178 150.355 101.234 150.513 101.234 150.728V151.876L101.08 151.666C101.276 151.134 101.593 150.733 102.032 150.462C102.48 150.191 102.988 150.056 103.558 150.056C104.108 150.056 104.561 150.154 104.916 150.35C105.27 150.546 105.536 150.845 105.714 151.246C105.891 151.647 105.98 152.156 105.98 152.772V156.44C105.98 156.655 105.924 156.818 105.812 156.93C105.709 157.042 105.555 157.098 105.35 157.098C105.144 157.098 104.986 157.042 104.874 156.93C104.762 156.818 104.706 156.655 104.706 156.44V152.842C104.706 152.235 104.589 151.792 104.356 151.512C104.122 151.232 103.749 151.092 103.236 151.092C102.638 151.092 102.158 151.279 101.794 151.652C101.439 152.016 101.262 152.511 101.262 153.136V156.44C101.262 156.879 101.047 157.098 100.618 157.098ZM111.15 157.126C110.412 157.126 109.778 156.986 109.246 156.706C108.723 156.417 108.317 156.011 108.028 155.488C107.738 154.956 107.594 154.331 107.594 153.612C107.594 152.903 107.734 152.282 108.014 151.75C108.303 151.218 108.695 150.803 109.19 150.504C109.694 150.205 110.268 150.056 110.912 150.056C111.369 150.056 111.78 150.135 112.144 150.294C112.517 150.443 112.834 150.663 113.096 150.952C113.357 151.241 113.553 151.596 113.684 152.016C113.824 152.427 113.894 152.893 113.894 153.416C113.894 153.565 113.847 153.682 113.754 153.766C113.67 153.841 113.544 153.878 113.376 153.878H108.588V153.066H113.054L112.816 153.262C112.816 152.777 112.741 152.366 112.592 152.03C112.452 151.685 112.242 151.423 111.962 151.246C111.691 151.069 111.35 150.98 110.94 150.98C110.492 150.98 110.109 151.087 109.792 151.302C109.474 151.507 109.232 151.801 109.064 152.184C108.896 152.557 108.812 152.991 108.812 153.486V153.57C108.812 154.41 109.012 155.045 109.414 155.474C109.815 155.903 110.394 156.118 111.15 156.118C111.448 156.118 111.752 156.081 112.06 156.006C112.377 155.931 112.68 155.796 112.97 155.6C113.11 155.516 113.236 155.479 113.348 155.488C113.469 155.488 113.567 155.525 113.642 155.6C113.716 155.665 113.763 155.749 113.782 155.852C113.8 155.945 113.786 156.048 113.74 156.16C113.693 156.272 113.604 156.37 113.474 156.454C113.166 156.669 112.797 156.837 112.368 156.958C111.948 157.07 111.542 157.126 111.15 157.126ZM118.432 157.126C117.741 157.126 117.144 156.981 116.64 156.692C116.136 156.393 115.749 155.978 115.478 155.446C115.207 154.905 115.072 154.27 115.072 153.542C115.072 153.001 115.147 152.515 115.296 152.086C115.455 151.657 115.679 151.293 115.968 150.994C116.257 150.686 116.607 150.453 117.018 150.294C117.438 150.135 117.909 150.056 118.432 150.056C118.759 150.056 119.104 150.107 119.468 150.21C119.832 150.313 120.168 150.481 120.476 150.714C120.579 150.789 120.644 150.877 120.672 150.98C120.7 151.073 120.7 151.171 120.672 151.274C120.653 151.377 120.607 151.465 120.532 151.54C120.467 151.605 120.378 151.643 120.266 151.652C120.163 151.661 120.051 151.629 119.93 151.554C119.706 151.386 119.468 151.265 119.216 151.19C118.973 151.115 118.74 151.078 118.516 151.078C118.171 151.078 117.863 151.134 117.592 151.246C117.331 151.358 117.107 151.521 116.92 151.736C116.743 151.941 116.607 152.198 116.514 152.506C116.421 152.805 116.374 153.155 116.374 153.556C116.374 154.349 116.561 154.975 116.934 155.432C117.307 155.88 117.835 156.104 118.516 156.104C118.74 156.104 118.973 156.071 119.216 156.006C119.459 155.931 119.697 155.81 119.93 155.642C120.051 155.567 120.163 155.539 120.266 155.558C120.369 155.567 120.453 155.609 120.518 155.684C120.593 155.749 120.639 155.833 120.658 155.936C120.677 156.029 120.667 156.127 120.63 156.23C120.602 156.333 120.537 156.417 120.434 156.482C120.135 156.706 119.809 156.869 119.454 156.972C119.099 157.075 118.759 157.126 118.432 157.126ZM124.828 157.126C124.277 157.126 123.815 157.028 123.442 156.832C123.078 156.636 122.802 156.351 122.616 155.978C122.438 155.605 122.35 155.147 122.35 154.606V151.162H121.454C121.286 151.162 121.155 151.12 121.062 151.036C120.968 150.943 120.922 150.821 120.922 150.672C120.922 150.513 120.968 150.392 121.062 150.308C121.155 150.224 121.286 150.182 121.454 150.182H122.35V148.656C122.35 148.441 122.406 148.283 122.518 148.18C122.63 148.068 122.788 148.012 122.994 148.012C123.199 148.012 123.353 148.068 123.456 148.18C123.568 148.283 123.624 148.441 123.624 148.656V150.182H125.318C125.495 150.182 125.63 150.224 125.724 150.308C125.817 150.392 125.864 150.513 125.864 150.672C125.864 150.821 125.817 150.943 125.724 151.036C125.63 151.12 125.495 151.162 125.318 151.162H123.624V154.494C123.624 155.007 123.731 155.395 123.946 155.656C124.16 155.917 124.515 156.048 125.01 156.048C125.187 156.048 125.336 156.034 125.458 156.006C125.579 155.969 125.686 155.95 125.78 155.95C125.864 155.941 125.934 155.969 125.99 156.034C126.055 156.099 126.088 156.221 126.088 156.398C126.088 156.529 126.064 156.65 126.018 156.762C125.98 156.865 125.901 156.935 125.78 156.972C125.668 157.009 125.518 157.042 125.332 157.07C125.145 157.107 124.977 157.126 124.828 157.126ZM133.09 157.098C132.912 157.098 132.758 157.056 132.628 156.972C132.497 156.879 132.394 156.729 132.32 156.524L130.234 150.966C130.168 150.789 130.15 150.635 130.178 150.504C130.206 150.373 130.271 150.271 130.374 150.196C130.476 150.121 130.612 150.084 130.78 150.084C130.938 150.084 131.064 150.121 131.158 150.196C131.251 150.271 131.33 150.406 131.396 150.602L133.3 155.978H132.964L134.924 150.574C134.989 150.406 135.073 150.285 135.176 150.21C135.288 150.126 135.423 150.084 135.582 150.084C135.75 150.084 135.89 150.126 136.002 150.21C136.114 150.285 136.193 150.406 136.24 150.574L138.172 155.978H137.85L139.782 150.574C139.847 150.387 139.931 150.261 140.034 150.196C140.136 150.121 140.262 150.084 140.412 150.084C140.58 150.084 140.706 150.126 140.79 150.21C140.874 150.294 140.92 150.406 140.93 150.546C140.948 150.677 140.93 150.817 140.874 150.966L138.788 156.524C138.722 156.72 138.62 156.865 138.48 156.958C138.349 157.051 138.195 157.098 138.018 157.098C137.84 157.098 137.682 157.051 137.542 156.958C137.411 156.865 137.308 156.72 137.234 156.524L135.232 151.036H135.876L133.874 156.524C133.799 156.72 133.696 156.865 133.566 156.958C133.435 157.051 133.276 157.098 133.09 157.098ZM143.11 157.07C142.914 157.07 142.76 157.009 142.648 156.888C142.536 156.767 142.48 156.599 142.48 156.384V150.798C142.48 150.574 142.536 150.406 142.648 150.294C142.76 150.173 142.914 150.112 143.11 150.112C143.315 150.112 143.474 150.173 143.586 150.294C143.698 150.406 143.754 150.574 143.754 150.798V156.384C143.754 156.599 143.698 156.767 143.586 156.888C143.483 157.009 143.325 157.07 143.11 157.07ZM143.11 148.6C142.858 148.6 142.657 148.535 142.508 148.404C142.368 148.264 142.298 148.082 142.298 147.858C142.298 147.615 142.368 147.433 142.508 147.312C142.657 147.181 142.858 147.116 143.11 147.116C143.381 147.116 143.581 147.181 143.712 147.312C143.852 147.433 143.922 147.615 143.922 147.858C143.922 148.082 143.852 148.264 143.712 148.404C143.581 148.535 143.381 148.6 143.11 148.6ZM148.63 157.126C148.08 157.126 147.618 157.028 147.244 156.832C146.88 156.636 146.605 156.351 146.418 155.978C146.241 155.605 146.152 155.147 146.152 154.606V151.162H145.256C145.088 151.162 144.958 151.12 144.864 151.036C144.771 150.943 144.724 150.821 144.724 150.672C144.724 150.513 144.771 150.392 144.864 150.308C144.958 150.224 145.088 150.182 145.256 150.182H146.152V148.656C146.152 148.441 146.208 148.283 146.32 148.18C146.432 148.068 146.591 148.012 146.796 148.012C147.002 148.012 147.156 148.068 147.258 148.18C147.37 148.283 147.426 148.441 147.426 148.656V150.182H149.12C149.298 150.182 149.433 150.224 149.526 150.308C149.62 150.392 149.666 150.513 149.666 150.672C149.666 150.821 149.62 150.943 149.526 151.036C149.433 151.12 149.298 151.162 149.12 151.162H147.426V154.494C147.426 155.007 147.534 155.395 147.748 155.656C147.963 155.917 148.318 156.048 148.812 156.048C148.99 156.048 149.139 156.034 149.26 156.006C149.382 155.969 149.489 155.95 149.582 155.95C149.666 155.941 149.736 155.969 149.792 156.034C149.858 156.099 149.89 156.221 149.89 156.398C149.89 156.529 149.867 156.65 149.82 156.762C149.783 156.865 149.704 156.935 149.582 156.972C149.47 157.009 149.321 157.042 149.134 157.07C148.948 157.107 148.78 157.126 148.63 157.126ZM151.559 157.098C151.363 157.098 151.209 157.042 151.097 156.93C150.985 156.818 150.929 156.655 150.929 156.44V147.676C150.929 147.461 150.985 147.303 151.097 147.2C151.209 147.088 151.363 147.032 151.559 147.032C151.765 147.032 151.923 147.088 152.035 147.2C152.147 147.303 152.203 147.461 152.203 147.676V151.666H152.021C152.217 151.134 152.535 150.733 152.973 150.462C153.421 150.191 153.93 150.056 154.499 150.056C155.05 150.056 155.503 150.159 155.857 150.364C156.212 150.56 156.478 150.859 156.655 151.26C156.833 151.661 156.921 152.165 156.921 152.772V156.44C156.921 156.655 156.865 156.818 156.753 156.93C156.651 157.042 156.497 157.098 156.291 157.098C156.086 157.098 155.927 157.042 155.815 156.93C155.703 156.818 155.647 156.655 155.647 156.44V152.842C155.647 152.235 155.531 151.792 155.297 151.512C155.064 151.232 154.691 151.092 154.177 151.092C153.58 151.092 153.099 151.279 152.735 151.652C152.381 152.016 152.203 152.511 152.203 153.136V156.44C152.203 156.879 151.989 157.098 151.559 157.098ZM163.221 157.098C163.025 157.098 162.871 157.042 162.759 156.93C162.647 156.818 162.591 156.655 162.591 156.44V150.728C162.591 150.513 162.647 150.355 162.759 150.252C162.871 150.14 163.025 150.084 163.221 150.084C163.417 150.084 163.567 150.14 163.669 150.252C163.781 150.355 163.837 150.513 163.837 150.728V151.876L163.683 151.666C163.879 151.134 164.197 150.733 164.635 150.462C165.083 150.191 165.592 150.056 166.161 150.056C166.712 150.056 167.165 150.154 167.519 150.35C167.874 150.546 168.14 150.845 168.317 151.246C168.495 151.647 168.583 152.156 168.583 152.772V156.44C168.583 156.655 168.527 156.818 168.415 156.93C168.313 157.042 168.159 157.098 167.953 157.098C167.748 157.098 167.589 157.042 167.477 156.93C167.365 156.818 167.309 156.655 167.309 156.44V152.842C167.309 152.235 167.193 151.792 166.959 151.512C166.726 151.232 166.353 151.092 165.839 151.092C165.242 151.092 164.761 151.279 164.397 151.652C164.043 152.016 163.865 152.511 163.865 153.136V156.44C163.865 156.879 163.651 157.098 163.221 157.098ZM173.753 157.126C173.016 157.126 172.381 156.986 171.849 156.706C171.326 156.417 170.92 156.011 170.631 155.488C170.342 154.956 170.197 154.331 170.197 153.612C170.197 152.903 170.337 152.282 170.617 151.75C170.906 151.218 171.298 150.803 171.793 150.504C172.297 150.205 172.871 150.056 173.515 150.056C173.972 150.056 174.383 150.135 174.747 150.294C175.12 150.443 175.438 150.663 175.699 150.952C175.96 151.241 176.156 151.596 176.287 152.016C176.427 152.427 176.497 152.893 176.497 153.416C176.497 153.565 176.45 153.682 176.357 153.766C176.273 153.841 176.147 153.878 175.979 153.878H171.191V153.066H175.657L175.419 153.262C175.419 152.777 175.344 152.366 175.195 152.03C175.055 151.685 174.845 151.423 174.565 151.246C174.294 151.069 173.954 150.98 173.543 150.98C173.095 150.98 172.712 151.087 172.395 151.302C172.078 151.507 171.835 151.801 171.667 152.184C171.499 152.557 171.415 152.991 171.415 153.486V153.57C171.415 154.41 171.616 155.045 172.017 155.474C172.418 155.903 172.997 156.118 173.753 156.118C174.052 156.118 174.355 156.081 174.663 156.006C174.98 155.931 175.284 155.796 175.573 155.6C175.713 155.516 175.839 155.479 175.951 155.488C176.072 155.488 176.17 155.525 176.245 155.6C176.32 155.665 176.366 155.749 176.385 155.852C176.404 155.945 176.39 156.048 176.343 156.16C176.296 156.272 176.208 156.37 176.077 156.454C175.769 156.669 175.4 156.837 174.971 156.958C174.551 157.07 174.145 157.126 173.753 157.126ZM180.408 157.098C180.231 157.098 180.077 157.056 179.946 156.972C179.815 156.879 179.713 156.729 179.638 156.524L177.552 150.966C177.487 150.789 177.468 150.635 177.496 150.504C177.524 150.373 177.589 150.271 177.692 150.196C177.795 150.121 177.93 150.084 178.098 150.084C178.257 150.084 178.383 150.121 178.476 150.196C178.569 150.271 178.649 150.406 178.714 150.602L180.618 155.978H180.282L182.242 150.574C182.307 150.406 182.391 150.285 182.494 150.21C182.606 150.126 182.741 150.084 182.9 150.084C183.068 150.084 183.208 150.126 183.32 150.21C183.432 150.285 183.511 150.406 183.558 150.574L185.49 155.978H185.168L187.1 150.574C187.165 150.387 187.249 150.261 187.352 150.196C187.455 150.121 187.581 150.084 187.73 150.084C187.898 150.084 188.024 150.126 188.108 150.21C188.192 150.294 188.239 150.406 188.248 150.546C188.267 150.677 188.248 150.817 188.192 150.966L186.106 156.524C186.041 156.72 185.938 156.865 185.798 156.958C185.667 157.051 185.513 157.098 185.336 157.098C185.159 157.098 185 157.051 184.86 156.958C184.729 156.865 184.627 156.72 184.552 156.524L182.55 151.036H183.194L181.192 156.524C181.117 156.72 181.015 156.865 180.884 156.958C180.753 157.051 180.595 157.098 180.408 157.098ZM194.485 157.098C194.279 157.098 194.121 157.042 194.009 156.93C193.897 156.818 193.841 156.655 193.841 156.44V151.162H193.001C192.833 151.162 192.702 151.12 192.609 151.036C192.515 150.943 192.469 150.821 192.469 150.672C192.469 150.513 192.515 150.392 192.609 150.308C192.702 150.224 192.833 150.182 193.001 150.182H194.191L193.841 150.518V150C193.841 149.095 194.06 148.409 194.499 147.942C194.947 147.466 195.6 147.191 196.459 147.116L196.893 147.088C197.033 147.069 197.145 147.093 197.229 147.158C197.313 147.214 197.369 147.289 197.397 147.382C197.425 147.475 197.425 147.573 197.397 147.676C197.378 147.769 197.336 147.853 197.271 147.928C197.205 148.003 197.121 148.045 197.019 148.054L196.711 148.068C196.151 148.115 195.745 148.283 195.493 148.572C195.241 148.852 195.115 149.272 195.115 149.832V150.392L194.933 150.182H196.543C196.72 150.182 196.855 150.224 196.949 150.308C197.042 150.392 197.089 150.513 197.089 150.672C197.089 150.821 197.042 150.943 196.949 151.036C196.855 151.12 196.72 151.162 196.543 151.162H195.115V156.44C195.115 156.879 194.905 157.098 194.485 157.098ZM198.865 157.098C198.65 157.098 198.487 157.042 198.375 156.93C198.263 156.818 198.207 156.655 198.207 156.44V150.728C198.207 150.513 198.263 150.355 198.375 150.252C198.487 150.14 198.641 150.084 198.837 150.084C199.033 150.084 199.182 150.14 199.285 150.252C199.397 150.355 199.453 150.513 199.453 150.728V151.806H199.313C199.462 151.246 199.742 150.821 200.153 150.532C200.563 150.243 201.081 150.079 201.707 150.042C201.856 150.033 201.977 150.07 202.071 150.154C202.164 150.229 202.215 150.359 202.225 150.546C202.234 150.723 202.192 150.868 202.099 150.98C202.005 151.083 201.861 151.143 201.665 151.162L201.413 151.176C200.797 151.241 200.321 151.442 199.985 151.778C199.658 152.114 199.495 152.576 199.495 153.164V156.44C199.495 156.655 199.439 156.818 199.327 156.93C199.224 157.042 199.07 157.098 198.865 157.098ZM203.95 157.07C203.754 157.07 203.6 157.009 203.488 156.888C203.376 156.767 203.32 156.599 203.32 156.384V150.798C203.32 150.574 203.376 150.406 203.488 150.294C203.6 150.173 203.754 150.112 203.95 150.112C204.155 150.112 204.314 150.173 204.426 150.294C204.538 150.406 204.594 150.574 204.594 150.798V156.384C204.594 156.599 204.538 156.767 204.426 156.888C204.323 157.009 204.165 157.07 203.95 157.07ZM203.95 148.6C203.698 148.6 203.497 148.535 203.348 148.404C203.208 148.264 203.138 148.082 203.138 147.858C203.138 147.615 203.208 147.433 203.348 147.312C203.497 147.181 203.698 147.116 203.95 147.116C204.221 147.116 204.421 147.181 204.552 147.312C204.692 147.433 204.762 147.615 204.762 147.858C204.762 148.082 204.692 148.264 204.552 148.404C204.421 148.535 204.221 148.6 203.95 148.6ZM209.792 157.126C209.055 157.126 208.42 156.986 207.888 156.706C207.365 156.417 206.959 156.011 206.67 155.488C206.381 154.956 206.236 154.331 206.236 153.612C206.236 152.903 206.376 152.282 206.656 151.75C206.945 151.218 207.337 150.803 207.832 150.504C208.336 150.205 208.91 150.056 209.554 150.056C210.011 150.056 210.422 150.135 210.786 150.294C211.159 150.443 211.477 150.663 211.738 150.952C211.999 151.241 212.195 151.596 212.326 152.016C212.466 152.427 212.536 152.893 212.536 153.416C212.536 153.565 212.489 153.682 212.396 153.766C212.312 153.841 212.186 153.878 212.018 153.878H207.23V153.066H211.696L211.458 153.262C211.458 152.777 211.383 152.366 211.234 152.03C211.094 151.685 210.884 151.423 210.604 151.246C210.333 151.069 209.993 150.98 209.582 150.98C209.134 150.98 208.751 151.087 208.434 151.302C208.117 151.507 207.874 151.801 207.706 152.184C207.538 152.557 207.454 152.991 207.454 153.486V153.57C207.454 154.41 207.655 155.045 208.056 155.474C208.457 155.903 209.036 156.118 209.792 156.118C210.091 156.118 210.394 156.081 210.702 156.006C211.019 155.931 211.323 155.796 211.612 155.6C211.752 155.516 211.878 155.479 211.99 155.488C212.111 155.488 212.209 155.525 212.284 155.6C212.359 155.665 212.405 155.749 212.424 155.852C212.443 155.945 212.429 156.048 212.382 156.16C212.335 156.272 212.247 156.37 212.116 156.454C211.808 156.669 211.439 156.837 211.01 156.958C210.59 157.07 210.184 157.126 209.792 157.126ZM214.751 157.098C214.555 157.098 214.401 157.042 214.289 156.93C214.177 156.818 214.121 156.655 214.121 156.44V150.728C214.121 150.513 214.177 150.355 214.289 150.252C214.401 150.14 214.555 150.084 214.751 150.084C214.947 150.084 215.096 150.14 215.199 150.252C215.311 150.355 215.367 150.513 215.367 150.728V151.876L215.213 151.666C215.409 151.134 215.726 150.733 216.165 150.462C216.613 150.191 217.121 150.056 217.691 150.056C218.241 150.056 218.694 150.154 219.049 150.35C219.403 150.546 219.669 150.845 219.847 151.246C220.024 151.647 220.113 152.156 220.113 152.772V156.44C220.113 156.655 220.057 156.818 219.945 156.93C219.842 157.042 219.688 157.098 219.483 157.098C219.277 157.098 219.119 157.042 219.007 156.93C218.895 156.818 218.839 156.655 218.839 156.44V152.842C218.839 152.235 218.722 151.792 218.489 151.512C218.255 151.232 217.882 151.092 217.369 151.092C216.771 151.092 216.291 151.279 215.927 151.652C215.572 152.016 215.395 152.511 215.395 153.136V156.44C215.395 156.879 215.18 157.098 214.751 157.098ZM224.736 157.126C224.139 157.126 223.612 156.986 223.154 156.706C222.706 156.417 222.356 156.006 222.104 155.474C221.852 154.933 221.726 154.303 221.726 153.584C221.726 152.856 221.848 152.231 222.09 151.708C222.342 151.176 222.692 150.77 223.14 150.49C223.598 150.201 224.13 150.056 224.736 150.056C225.343 150.056 225.866 150.21 226.304 150.518C226.743 150.817 227.037 151.218 227.186 151.722H227.032V147.676C227.032 147.461 227.084 147.303 227.186 147.2C227.298 147.088 227.457 147.032 227.662 147.032C227.868 147.032 228.026 147.088 228.138 147.2C228.25 147.303 228.306 147.461 228.306 147.676V156.44C228.306 156.655 228.25 156.818 228.138 156.93C228.026 157.042 227.868 157.098 227.662 157.098C227.466 157.098 227.312 157.042 227.2 156.93C227.088 156.818 227.032 156.655 227.032 156.44V155.166L227.186 155.418C227.046 155.941 226.752 156.356 226.304 156.664C225.866 156.972 225.343 157.126 224.736 157.126ZM225.03 156.118C225.441 156.118 225.796 156.02 226.094 155.824C226.402 155.628 226.636 155.343 226.794 154.97C226.962 154.597 227.046 154.135 227.046 153.584C227.046 152.763 226.864 152.137 226.5 151.708C226.136 151.279 225.646 151.064 225.03 151.064C224.629 151.064 224.274 151.162 223.966 151.358C223.668 151.545 223.434 151.825 223.266 152.198C223.098 152.571 223.014 153.033 223.014 153.584C223.014 154.405 223.196 155.035 223.56 155.474C223.934 155.903 224.424 156.118 225.03 156.118ZM230.965 154.41C230.844 154.41 230.741 154.373 230.657 154.298C230.582 154.214 230.54 154.088 230.531 153.92L230.223 147.858C230.204 147.606 230.26 147.405 230.391 147.256C230.522 147.107 230.713 147.032 230.965 147.032C231.208 147.032 231.394 147.107 231.525 147.256C231.656 147.405 231.712 147.606 231.693 147.858L231.385 153.92C231.376 154.088 231.334 154.214 231.259 154.298C231.184 154.373 231.086 154.41 230.965 154.41ZM230.965 157.056C230.722 157.056 230.522 156.977 230.363 156.818C230.204 156.659 230.125 156.459 230.125 156.216C230.125 155.973 230.204 155.777 230.363 155.628C230.522 155.479 230.722 155.404 230.965 155.404C231.226 155.404 231.427 155.479 231.567 155.628C231.716 155.777 231.791 155.973 231.791 156.216C231.791 156.459 231.716 156.659 231.567 156.818C231.427 156.977 231.226 157.056 230.965 157.056Z" fill="#646D89"/>
<rect x="0.5" y="0.5" width="281" height="186" rx="15.5" stroke="#A62D82"/>
</svg>
