<svg width="62" height="59" viewBox="0 0 62 59" fill="none" xmlns="http://www.w3.org/2000/svg">
<path d="M22.0678 40.3261L22.0565 40.3193L22.0137 40.2968C21.1253 39.8135 20.2529 39.3014 19.3977 38.7614C17.3588 37.4786 15.4161 36.0489 13.5848 34.4839C9.44238 30.9111 4.83844 25.5507 4.83844 19.13C4.83864 17.035 5.48828 14.9917 6.69792 13.2812C7.90755 11.5708 9.61768 10.2775 11.5928 9.57924C13.568 8.88102 15.711 8.81229 17.7269 9.3825C19.7427 9.95272 21.5322 11.1338 22.849 12.7632C24.1657 11.1338 25.9552 9.95272 27.9711 9.3825C29.9869 8.81229 32.1299 8.88102 34.1051 9.57924C36.0803 10.2775 37.7904 11.5708 39 13.2812C40.2097 14.9917 40.8593 17.035 40.8595 19.13C40.8595 25.5507 36.2578 30.9111 32.1131 34.4839C29.5114 36.7069 26.6867 38.6549 23.6842 40.2968L23.6414 40.3193L23.6302 40.3261H23.6257C23.3865 40.4528 23.1199 40.5193 22.8492 40.5197C22.5785 40.52 22.3118 40.4544 22.0723 40.3284L22.0678 40.3261Z" fill="#FF1659"/>
<path fill-rule="evenodd" clip-rule="evenodd" d="M39.8881 21.6787C37.0004 21.6787 34.2311 22.8258 32.1892 24.8677C30.1473 26.9095 29.0002 29.6789 29.0002 32.5665C29.0002 35.4542 30.1473 38.2235 32.1892 40.2654C34.2311 42.3072 37.0004 43.4543 39.8881 43.4543C42.7757 43.4543 45.5451 42.3072 47.5869 40.2654C49.6288 38.2235 50.7759 35.4542 50.7759 32.5665C50.7759 29.6789 49.6288 26.9095 47.5869 24.8677C45.5451 22.8258 42.7757 21.6787 39.8881 21.6787ZM26.0308 32.5665C26.031 30.3507 26.5626 28.1672 27.5809 26.1992C28.5993 24.2313 30.0747 22.5362 31.8834 21.2562C33.6922 19.9763 35.7815 19.1487 37.9762 18.843C40.1708 18.5373 42.4067 18.7623 44.4965 19.4992C46.5862 20.2361 48.4687 21.4634 49.9861 23.0781C51.5035 24.6928 52.6116 26.6479 53.2174 28.7793C53.8232 30.9107 53.909 33.1564 53.4676 35.3278C53.0263 37.4992 52.0706 39.5331 50.6809 41.259L57.269 47.8491C57.4149 47.985 57.5319 48.1489 57.613 48.331C57.6942 48.5132 57.7378 48.7098 57.7413 48.9091C57.7448 49.1085 57.7082 49.3065 57.6335 49.4913C57.5588 49.6762 57.4477 49.8442 57.3067 49.9851C57.1657 50.1261 56.9978 50.2373 56.8129 50.3119C56.628 50.3866 56.43 50.4233 56.2306 50.4198C56.0313 50.4163 55.8347 50.3726 55.6526 50.2915C55.4704 50.2103 55.3065 50.0933 55.1706 49.9475L48.5805 43.3593C46.5446 44.9992 44.0863 46.0297 41.4896 46.3318C38.8929 46.634 36.2636 46.1954 33.9056 45.0668C31.5475 43.9382 29.5568 42.1655 28.1634 39.9536C26.77 37.7417 26.0306 35.1808 26.0308 32.5665Z" fill="#95002B"/>
</svg>
